<?xml version="1.0" encoding="UTF-8" standalone="no"?>
<svg xmlns="http://www.w3.org/2000/svg" version="1.2" baseProfile="tiny" viewBox="0 0 500 500" width="500" height="500">
<g stroke-width="2.00" fill="none" stroke-linecap="butt">
<path stroke="#224d8e" vector-effect="non-scaling-stroke" d="
  M 217.25 151.96
  C 216.88 152.01 216.57 152.14 216.32 152.36
  C 216.11 152.55 216.06 152.89 216.19 153.21
  C 219.20 160.80 221.29 168.65 222.46 176.75"
/>
<path stroke="#2256a7" vector-effect="non-scaling-stroke" d="
  M 222.46 176.75
  C 221.05 177.74 219.14 178.16 216.75 178.00
  C 214.87 177.87 212.04 178.22 208.25 179.04"
/>
<path stroke="#2f5f96" vector-effect="non-scaling-stroke" d="
  M 208.25 179.04
  C 201.48 172.49 195.93 165.11 191.60 156.90
  C 189.22 152.39 186.57 146.27 183.65 138.56
  C 180.74 130.88 178.35 123.03 176.46 115.01
  C 175.44 110.66 174.36 106.33 173.22 102.01
  C 172.70 100.03 172.39 98.02 172.29 95.98
  C 172.21 94.50 172.01 93.20 171.70 92.09
  C 171.12 90.04 170.80 88.76 170.75 88.25
  C 170.09 81.74 169.36 75.23 168.56 68.74
  C 168.53 68.48 168.34 68.23 168.05 68.06
  C 167.46 67.73 167.20 67.14 167.25 66.29"
/>
<path stroke="#819193" vector-effect="non-scaling-stroke" d="
  M 167.25 66.29
  L 166.75 66.21"
/>
<path stroke="#315179" vector-effect="non-scaling-stroke" d="
  M 208.25 179.04
  C 212.88 183.34 217.64 187.48 222.55 191.45
  C 224.00 192.62 223.91 193.47 222.29 194.00"
/>
<path stroke="#3a4a4c" vector-effect="non-scaling-stroke" d="
  M 222.29 194.00
  C 222.18 193.77 222.00 193.68 221.75 193.71"
/>
<path stroke="#9e9b37" vector-effect="non-scaling-stroke" d="
  M 221.75 193.71
  C 221.77 193.17 221.58 192.79 221.19 192.58
  C 220.76 192.35 220.53 192.22 220.49 192.19
  C 213.78 186.87 207.54 181.05 201.77 174.73
  C 197.75 170.33 194.14 165.19 190.94 159.31
  C 186.35 150.89 182.63 142.32 179.78 133.60
  C 177.98 128.11 176.19 121.69 174.42 114.35
  C 172.91 108.07 171.43 100.87 170.00 92.75
  C 168.23 82.71 167.30 74.13 167.21 67.00"
/>
<path stroke="#294063" vector-effect="non-scaling-stroke" d="
  M 258.50 234.96
  C 257.98 235.51 257.48 236.07 257.01 236.66
  C 256.54 237.23 256.25 237.91 256.13 238.68
  C 255.94 239.85 255.78 241.02 255.64 242.19
  C 255.51 243.28 255.26 244.43 254.90 245.63
  C 254.20 247.98 253.69 250.38 253.37 252.82
  C 253.33 253.12 253.16 253.41 252.90 253.61
  C 251.86 254.40 251.08 255.47 250.57 256.82"
/>
<path stroke="#2e3e57" vector-effect="non-scaling-stroke" d="
  M 250.57 256.82
  L 249.25 256.21"
/>
<path stroke="#2d415d" vector-effect="non-scaling-stroke" d="
  M 249.25 256.21
  C 243.52 252.16 237.12 246.99 230.06 240.69
  C 223.08 234.45 217.48 227.75 213.25 220.58
  C 208.66 212.81 204.75 204.77 201.50 196.48
  C 201.16 195.61 201.45 195.26 202.37 195.43
  C 208.79 196.60 215.08 196.62 221.25 195.50
  C 221.88 195.39 222.23 194.89 222.29 194.00"
/>
<path stroke="#908d65" vector-effect="non-scaling-stroke" d="
  M 167.25 66.29
  L 167.21 67.00"
/>
<path stroke="#f0cd35" vector-effect="non-scaling-stroke" d="
  M 167.21 67.00
  L 167.00 67.00
  C 166.90 67.00 166.84 67.13 166.88 67.25
  C 167.51 69.09 166.90 69.92 165.04 69.75"
/>
<path stroke="#2c3844" vector-effect="non-scaling-stroke" d="
  M 223.71 163.00
  C 222.66 163.98 222.49 164.92 223.20 165.83
  C 223.85 166.66 224.19 167.11 224.24 167.19
  C 225.35 169.20 226.34 171.28 227.19 173.41
  C 228.00 175.43 229.00 177.32 230.18 179.07
  C 231.35 180.80 232.42 182.58 233.41 184.41
  C 234.60 186.64 235.69 188.40 236.66 189.70
  C 238.14 191.68 239.65 193.63 241.20 195.56
  C 242.03 196.59 243.53 198.56 245.70 201.48
  C 248.36 205.07 251.36 208.36 254.70 211.36
  C 254.91 211.55 255.20 211.70 255.55 211.81
  C 256.72 212.17 257.50 212.91 257.87 214.02
  C 257.96 214.29 257.92 214.62 257.76 214.94
  C 256.94 216.58 257.10 218.11 258.25 219.54"
/>
<path stroke="#28374a" vector-effect="non-scaling-stroke" d="
  M 258.29 219.75
  L 259.00 221.70
  C 259.12 222.04 259.32 222.29 259.53 222.37
  C 261.36 223.10 263.09 224.02 264.72 225.12
  C 267.56 227.05 269.00 228.02 269.05 228.05
  C 273.74 230.94 278.32 234.02 282.78 237.27
  C 283.03 237.45 283.13 237.77 283.01 238.04
  C 282.43 239.34 281.43 239.74 280.00 239.25
  C 278.40 238.70 276.98 238.36 275.75 238.25
  C 273.50 238.04 272.34 237.93 272.27 237.92
  C 267.66 237.03 263.07 236.04 258.50 234.96"
/>
<path stroke="#243f71" vector-effect="non-scaling-stroke" d="
  M 258.50 234.96
  L 260.00 231.12
  C 260.34 230.25 260.24 229.29 259.72 228.59
  C 256.83 224.64 253.97 221.15 251.13 218.13
  C 246.77 213.50 242.56 208.74 238.51 203.84
  C 232.30 196.33 228.98 192.25 228.54 191.60
  C 225.56 187.17 223.53 182.22 222.46 176.75"
/>
<path stroke="#9a8a1c" vector-effect="non-scaling-stroke" d="
  M 221.75 193.71
  C 214.44 194.10 206.98 194.08 199.37 193.66
  C 199.01 193.64 198.74 194.00 198.86 194.34
  C 201.76 202.67 205.34 210.61 209.60 218.16
  C 212.95 224.09 216.80 229.52 221.15 234.43
  C 228.84 243.12 237.63 250.66 247.50 257.04"
/>
<path stroke="#9b8815" vector-effect="non-scaling-stroke" d="
  M 247.50 257.04
  C 254.71 262.34 261.98 267.56 269.31 272.69
  C 272.57 274.97 274.98 276.50 276.54 277.28
  C 276.87 277.44 277.21 277.48 277.47 277.38
  L 280.25 276.29"
/>
<path stroke="#968922" vector-effect="non-scaling-stroke" d="
  M 280.25 276.29
  L 288.86 272.41"
/>
<path stroke="#f9cd08" vector-effect="non-scaling-stroke" d="
  M 288.86 272.41
  C 291.37 271.56 293.99 270.97 296.74 270.65
  C 298.34 270.46 299.70 270.89 300.81 271.94
  C 301.14 272.25 301.19 273.14 300.94 274.19
  C 299.57 279.89 296.88 284.83 292.87 289.00
  C 292.82 289.05 292.23 289.71 291.11 290.97
  C 289.97 292.24 288.63 293.23 287.08 293.92
  C 285.25 294.74 284.09 295.21 283.60 295.32
  C 282.31 295.60 281.01 295.26 279.69 294.31
  C 271.78 288.60 261.98 282.23 250.27 275.18
  C 238.27 267.95 226.59 260.19 215.24 251.88
  C 214.25 251.15 213.75 250.18 213.75 248.95
  C 213.75 246.90 213.82 245.17 213.97 243.77
  C 214.18 241.78 213.63 240.22 212.31 239.11
  C 211.12 238.11 210.51 237.60 210.49 237.58
  C 208.14 235.05 206.18 232.25 204.60 229.17
  C 203.11 226.28 201.53 223.44 199.86 220.65
  C 199.33 219.77 198.42 218.83 197.15 217.83
  C 195.90 216.85 194.75 215.59 193.69 214.06
  C 191.38 210.73 188.55 207.22 185.22 203.55
  C 181.99 199.98 180.24 198.07 179.95 197.80
  C 178.11 196.10 175.91 194.64 173.36 193.41
  C 172.03 192.78 170.97 191.84 170.18 190.59
  C 168.13 187.34 167.16 183.56 167.25 179.25
  C 167.29 177.21 166.52 174.36 164.95 170.70
  C 164.83 170.43 164.79 170.10 164.84 169.76
  C 165.01 168.61 164.89 167.10 164.50 165.25
  C 163.96 162.72 163.57 155.81 163.33 144.52
  C 163.29 142.73 163.10 139.90 162.76 136.02
  C 162.51 133.18 162.41 130.34 162.48 127.49
  C 162.57 123.56 162.55 120.24 162.42 117.51
  C 162.25 113.78 162.27 110.45 162.50 107.50
  C 162.62 105.88 162.57 104.54 162.36 103.48
  C 162.29 103.16 162.32 102.83 162.43 102.53
  C 163.27 100.25 163.46 97.91 163.00 95.50
  C 162.83 94.61 163.02 92.22 163.56 88.32
  C 163.57 88.27 163.76 87.41 164.14 85.73
  C 164.61 83.64 164.22 81.65 162.98 79.75"
/>
<path stroke="#36372a" vector-effect="non-scaling-stroke" d="
  M 249.25 256.21
  C 248.57 256.27 247.99 256.55 247.50 257.04"
/>
<path stroke="#323630" vector-effect="non-scaling-stroke" d="
  M 280.25 276.29
  C 276.36 275.24 272.87 273.48 269.80 271.03
  C 266.29 268.24 264.51 266.82 264.45 266.78
  C 259.76 263.47 255.14 260.15 250.57 256.82"
/>
<path stroke="#917b22" vector-effect="non-scaling-stroke" d="
  M 288.86 272.41
  C 280.66 268.24 272.85 263.45 265.44 258.06
  C 263.31 256.51 260.14 254.57 255.94 252.24
  C 255.70 252.11 255.57 251.82 255.62 251.52
  L 258.17 237.97
  C 258.24 237.60 258.58 237.36 258.94 237.42
  L 290.70 242.68
  C 291.84 242.87 291.96 242.59 291.06 241.86
  C 287.59 239.05 284.13 236.37 280.66 233.80
  C 274.13 228.96 270.59 226.36 270.04 226.00
  C 266.36 223.52 262.44 221.44 258.29 219.75"
/>
<path stroke="#8c7b30" vector-effect="non-scaling-stroke" d="
  M 258.29 219.75
  L 258.25 219.54"
/>
<path stroke="#957c1c" vector-effect="non-scaling-stroke" d="
  M 258.25 219.54
  L 268.06 215.13
  C 269.30 214.58 269.24 214.21 267.89 214.02
  C 265.22 213.65 262.69 212.96 260.30 211.95
  C 258.18 211.06 256.05 209.59 253.91 207.56
  C 250.74 204.55 247.83 201.31 245.16 197.83
  C 238.77 189.48 233.13 180.58 228.26 171.14"
/>
<path stroke="#fad008" vector-effect="non-scaling-stroke" d="
  M 228.26 171.14
  C 231.99 173.33 235.36 175.96 238.37 179.05
  C 238.40 179.08 239.09 179.94 240.42 181.61
  C 241.54 183.02 242.98 184.05 244.73 184.71
  C 246.28 185.29 247.85 186.24 249.44 187.56
  C 251.39 189.19 254.32 191.17 258.22 193.50
  C 276.69 204.54 295.47 215.02 314.56 224.94
  C 318.67 227.07 326.17 230.40 337.06 234.94
  C 346.25 238.77 355.13 243.23 363.70 248.32
  C 364.30 248.68 365.07 248.51 365.47 247.94
  C 366.47 246.53 367.79 245.28 369.44 244.19
  C 371.34 242.93 372.86 240.62 374.00 237.25
  C 374.35 236.22 374.25 235.38 373.71 234.75"
/>
<path stroke="#cdab11" stroke-opacity="0.953" vector-effect="non-scaling-stroke" d="
  M 373.71 234.75
  C 373.76 234.36 373.93 234.02 374.21 233.75"
/>
<path stroke="#cdab11" stroke-opacity="0.953" vector-effect="non-scaling-stroke" d="
  M 374.79 234.75
  C 374.53 236.29 375.09 237.46 376.46 238.25"
/>
<path stroke="#d6a80c" stroke-opacity="0.871" vector-effect="non-scaling-stroke" d="
  M 377.46 240.19
  C 377.59 243.00 378.20 245.06 379.30 246.37
  C 380.65 247.98 381.30 247.73 381.25 245.63
  C 381.21 243.74 380.89 241.95 380.29 240.25"
/>
<path stroke="#d6a80c" stroke-opacity="0.871" vector-effect="non-scaling-stroke" d="
  M 379.96 238.25
  C 380.67 232.68 379.29 227.66 375.83 223.21"
/>
<path stroke="#8c7b2e" vector-effect="non-scaling-stroke" d="
  M 363.84 201.85
  C 370.29 205.66 375.57 210.68 379.67 216.90"
/>
<path stroke="#967a16" vector-effect="non-scaling-stroke" d="
  M 379.67 216.90
  C 388.56 228.37 391.67 241.32 389.00 255.75
  C 388.63 257.74 388.00 260.38 387.10 263.68
  C 387.07 263.79 387.02 263.86 386.95 263.91
  C 386.86 263.98 386.77 264.01 386.67 264.02
  C 386.48 264.03 386.29 263.84 386.23 263.57
  C 385.65 260.96 384.86 258.41 383.87 255.92
  C 382.58 252.71 382.15 253.31 382.58 257.74
  C 383.18 263.97 382.57 270.06 380.75 276.02
  C 380.46 276.95 380.19 276.95 379.93 276.00
  C 379.30 273.67 378.28 271.54 376.86 269.59
  C 375.71 268.01 374.02 266.40 371.81 264.75
  C 363.18 258.34 353.18 254.90 341.81 254.44
  C 336.04 254.21 331.02 254.37 326.74 254.93
  C 326.49 254.96 326.37 255.24 326.50 255.44
  L 331.58 263.16
  C 332.22 264.13 332.00 264.47 330.92 264.18
  C 318.43 260.85 306.06 257.98 293.82 255.56"
/>
<path stroke="#ecb80e" vector-effect="non-scaling-stroke" d="
  M 293.82 255.56
  C 293.42 257.11 293.71 258.26 294.70 259.03
  C 295.43 259.60 295.89 259.99 296.08 260.21
  C 296.77 261.02 297.23 261.43 297.47 261.44
  C 298.94 261.53 300.24 262.06 301.36 263.03
  C 303.93 265.26 303.96 267.25 301.44 269.00"
/>
<path stroke="#967a16" vector-effect="non-scaling-stroke" d="
  M 301.44 269.00
  C 305.90 287.05 305.16 304.53 299.23 321.44
  C 296.94 327.98 293.98 333.93 290.36 339.29
  C 286.06 345.67 280.91 351.37 274.90 356.39
  C 266.86 363.12 259.58 368.92 253.06 373.81
  C 237.36 385.59 223.85 399.26 212.53 414.83"
/>
<path stroke="#8c7b2e" vector-effect="non-scaling-stroke" d="
  M 212.53 414.83
  C 209.72 418.67 206.52 422.14 202.93 425.25"
/>
<path stroke="#c7a720" stroke-opacity="0.859" vector-effect="non-scaling-stroke" d="
  M 220.77 397.97
  C 222.84 395.46 224.92 392.97 227.02 390.51
  C 234.49 381.75 241.38 372.56 247.69 362.94
  C 248.40 361.85 248.65 360.79 248.46 359.75"
/>
<path stroke="#c7a720" stroke-opacity="0.859" vector-effect="non-scaling-stroke" d="
  M 243.50 358.29
  C 241.15 357.82 238.96 358.11 236.93 359.16"
/>
<path stroke="#8c7b30" vector-effect="non-scaling-stroke" d="
  M 193.43 358.54
  C 206.48 354.31 218.94 347.81 230.81 339.06
  C 236.49 334.87 241.14 330.53 244.75 326.04"
/>
<path stroke="#967a16" vector-effect="non-scaling-stroke" d="
  M 244.75 326.04
  C 248.66 321.68 251.82 316.83 254.23 311.49
  C 255.22 309.30 255.31 307.07 254.50 304.79
  C 253.15 301.00 250.73 298.14 247.24 296.21
  C 235.03 289.45 223.09 282.26 211.41 274.64
  C 208.81 272.95 206.69 271.34 205.04 269.82
  C 202.89 267.84 201.06 265.88 199.56 263.94
  C 194.74 257.67 190.28 250.42 186.17 242.17
  C 176.20 222.15 169.11 201.17 164.92 179.23
  C 164.91 179.21 164.71 177.71 164.30 174.73
  C 164.09 173.22 163.74 171.74 163.25 170.29"
/>
<path stroke="#f5de25" vector-effect="non-scaling-stroke" d="
  M 253.79 152.23
  C 253.85 155.38 255.07 157.90 257.44 159.80
  C 258.53 160.67 259.09 161.13 259.13 161.16
  C 261.17 162.98 262.61 164.36 263.44 165.31
  C 265.55 167.72 267.99 169.65 270.76 171.10
  C 274.17 172.88 275.89 173.78 275.94 173.81
  C 283.47 178.10 291.57 180.78 300.23 181.84"
/>
<path stroke="#d3bc11" stroke-opacity="0.953" vector-effect="non-scaling-stroke" d="
  M 367.07 224.46
  C 367.98 227.41 369.66 229.83 372.10 231.70
  C 372.34 231.89 372.52 232.16 372.58 232.48
  C 372.76 233.33 373.14 234.09 373.71 234.75"
/>
<path stroke="#9a8d1c" vector-effect="non-scaling-stroke" d="
  M 228.26 171.14
  L 223.71 163.00"
/>
<path stroke="#918c2f" vector-effect="non-scaling-stroke" d="
  M 223.71 163.00
  C 222.84 161.91 222.56 160.69 222.86 159.34"
/>
<path stroke="#1f2c3e" stroke-opacity="0.796" vector-effect="non-scaling-stroke" d="
  M 405.29 244.00
  C 405.65 245.72 405.80 247.44 405.74 249.17
  C 405.67 251.17 405.73 252.88 405.91 254.30
  C 406.24 256.85 406.43 260.09 406.50 264.00
  C 406.56 267.51 405.99 270.47 404.79 272.87
  C 404.65 273.16 404.59 273.47 404.61 273.81
  C 404.68 275.09 404.40 276.26 403.77 277.33
  C 403.61 277.60 403.52 277.90 403.49 278.24
  L 403.29 280.75"
/>
<path stroke="#1f2c3e" stroke-opacity="0.796" vector-effect="non-scaling-stroke" d="
  M 403.21 281.00
  C 401.56 283.01 400.32 285.01 399.50 287.00
  C 398.69 288.97 397.42 290.30 395.71 291.00"
/>
<path stroke="#7d7442" vector-effect="non-scaling-stroke" d="
  M 395.71 291.00
  C 398.95 284.62 400.97 277.87 401.77 270.75
  C 402.61 263.25 402.60 255.75 401.75 248.25
  C 401.23 243.68 399.16 239.00 395.55 234.23"
/>
<path stroke="#2d353c" vector-effect="non-scaling-stroke" d="
  M 395.55 234.23
  C 395.66 237.82 396.00 241.29 396.58 244.62
  C 397.23 248.33 397.56 251.28 397.59 253.48
  C 397.65 258.04 397.60 262.60 397.43 267.15
  C 397.32 269.99 396.92 272.68 396.23 275.21
  C 395.18 279.04 394.25 281.62 393.44 282.94
  C 392.07 285.16 390.84 287.76 389.75 290.75
  C 389.40 291.73 389.48 292.58 390.00 293.29"
/>
<path stroke="#4d574d" stroke-opacity="0.859" vector-effect="non-scaling-stroke" d="
  M 390.00 293.29
  C 390.25 293.58 390.32 293.90 390.21 294.25"
/>
<path stroke="#1f2c3e" stroke-opacity="0.796" vector-effect="non-scaling-stroke" d="
  M 385.75 297.29
  C 384.48 297.17 383.67 297.64 383.31 298.70
  C 383.21 298.98 383.00 299.21 382.71 299.33
  C 382.10 299.57 381.70 300.03 381.50 300.71"
/>
<path stroke="#121c2b" stroke-opacity="0.996" vector-effect="non-scaling-stroke" d="
  M 326.46 355.00
  L 325.04 354.75"
/>
<path stroke="#121c2b" stroke-opacity="0.996" vector-effect="non-scaling-stroke" d="
  M 204.00 429.79
  C 202.71 429.97 201.87 429.46 201.46 428.25"
/>
<path stroke="#2d353c" vector-effect="non-scaling-stroke" d="
  M 212.53 414.83
  C 216.97 410.76 221.15 406.46 225.08 401.91
  C 228.22 398.28 230.87 395.53 233.03 393.67
  C 235.93 391.17 238.92 388.78 242.01 386.51
  C 243.20 385.63 244.46 384.38 245.78 382.76
  C 247.50 380.63 249.59 378.73 252.06 377.06
  C 253.61 376.01 255.77 374.46 258.55 372.40
  C 260.46 370.98 262.55 369.32 264.82 367.42
  C 269.43 363.56 274.09 359.75 278.79 356.00
  C 283.40 352.31 287.91 346.99 292.31 340.06
  C 297.61 331.71 301.18 323.76 303.03 316.20
  C 303.05 316.12 303.13 316.08 303.19 316.12
  C 303.22 316.15 303.25 316.18 303.27 316.22
  C 303.31 316.29 303.34 316.29 303.35 316.22
  C 304.00 312.07 304.71 307.93 305.49 303.80
  C 306.03 300.92 306.40 298.02 306.59 295.11
  C 306.75 292.74 306.58 289.84 306.07 286.43
  C 305.63 283.43 305.25 280.42 304.92 277.40
  C 304.87 276.93 304.68 276.32 304.37 275.57
  C 303.91 274.45 304.11 273.77 304.98 273.53
  C 305.55 273.37 306.22 273.53 306.99 274.00
  C 310.97 276.47 314.76 279.19 318.37 282.18
  C 318.59 282.36 318.68 282.67 318.59 282.97
  C 318.41 283.62 318.37 284.30 318.46 285.00"
/>
<path stroke="#847334" vector-effect="non-scaling-stroke" d="
  M 318.46 285.00
  C 316.39 284.57 314.36 284.02 312.35 283.36
  C 312.08 283.27 311.85 283.27 311.66 283.34
  C 311.23 283.50 311.12 283.75 311.31 284.10
  C 311.42 284.30 311.63 284.47 311.95 284.61
  C 319.21 287.85 326.51 290.99 333.86 294.04"
/>
<path stroke="#8693a4" vector-effect="non-scaling-stroke" d="
  M 333.86 294.04
  C 338.37 300.88 343.52 306.01 349.31 309.44
  C 355.85 313.30 362.18 313.16 368.29 309.03
  C 368.66 308.79 368.62 308.64 368.19 308.57
  C 365.10 308.10 362.49 306.98 360.35 305.22
  C 359.38 304.42 357.53 302.38 354.82 299.11
  C 351.94 295.63 349.49 291.84 347.46 287.75"
/>
<path stroke="#827b5b" vector-effect="non-scaling-stroke" d="
  M 347.46 287.75
  L 352.27 289.03"
/>
<path stroke="#847334" vector-effect="non-scaling-stroke" d="
  M 352.27 289.03
  C 358.98 291.37 365.42 294.35 371.59 297.98
  C 373.59 299.15 375.45 300.68 377.16 302.56
  C 377.38 302.80 377.76 302.76 377.96 302.48
  L 380.73 298.56"
/>
<path stroke="#2d353c" vector-effect="non-scaling-stroke" d="
  M 380.73 298.56
  C 381.16 297.28 381.07 296.28 380.44 295.56
  C 376.27 290.81 370.98 287.30 364.57 285.01
  C 363.96 284.79 363.37 284.53 362.78 284.24
  C 356.99 281.33 351.66 279.09 346.78 277.54
  C 341.03 275.71 335.29 273.84 329.56 271.94
  C 327.57 271.28 325.26 270.33 322.62 269.10
  C 320.36 268.05 318.06 267.07 315.72 266.18
  C 315.40 266.06 315.15 265.84 315.02 265.56
  C 314.39 264.23 314.62 263.27 315.71 262.69
  C 316.36 262.34 317.24 262.31 318.34 262.62
  C 322.75 263.85 327.14 265.15 331.52 266.51
  C 333.75 267.20 334.52 266.42 333.83 264.19
  C 333.20 262.19 331.98 260.31 330.17 258.55
  C 328.55 256.97 328.85 256.22 331.08 256.31
  L 348.25 256.96
  C 348.52 256.97 348.83 257.07 349.18 257.26
  C 349.67 257.53 350.18 257.69 350.73 257.75
  C 352.06 257.90 352.74 257.98 352.75 257.98
  C 361.56 260.11 368.81 263.95 374.50 269.50
  C 375.78 270.75 376.71 272.60 377.28 275.05
  C 377.57 276.28 377.97 277.11 378.46 277.52
  C 379.27 278.19 380.26 278.38 381.45 278.08
  C 381.75 278.00 382.01 277.79 382.14 277.49
  C 383.61 274.12 384.45 270.60 384.66 266.93
  C 384.68 266.67 384.90 266.46 385.18 266.46
  C 386.97 266.46 388.18 265.58 388.81 263.81
  C 392.20 254.44 392.76 245.00 390.50 235.50
  C 390.09 233.75 389.49 231.70 388.72 229.34
  C 388.09 227.41 387.16 225.51 385.93 223.63
  C 383.88 220.50 382.57 218.45 382.00 217.50
  C 381.53 216.70 380.75 216.50 379.67 216.90"
/>
<path stroke="#243f71" vector-effect="non-scaling-stroke" d="
  M 104.00 139.96
  C 102.72 140.68 102.47 141.78 103.25 143.25
  C 110.30 156.52 117.53 168.22 124.92 178.36
  C 134.37 191.32 145.70 202.59 158.90 212.18
  C 159.48 212.61 159.70 212.46 159.56 211.75
  L 154.41 186.40"
/>
<path stroke="#224d8e" vector-effect="non-scaling-stroke" d="
  M 154.41 186.40
  C 153.98 178.93 153.10 172.05 151.79 165.75"
/>
<path stroke="#2d353d" vector-effect="non-scaling-stroke" d="
  M 162.46 170.35
  C 162.81 177.94 163.88 185.45 165.65 192.89
  C 165.65 192.90 165.92 194.36 166.47 197.28
  C 166.75 198.77 167.20 200.20 167.82 201.57
  C 168.91 203.96 169.60 205.71 169.90 206.82
  C 171.07 211.17 172.43 215.45 173.98 219.67
  C 174.49 221.06 175.52 223.34 177.07 226.51
  C 178.18 228.77 179.15 231.09 179.96 233.47
  C 181.35 237.51 182.50 240.39 183.39 242.12
  C 185.18 245.57 187.12 248.95 189.19 252.25
  C 189.20 252.27 189.77 253.36 190.89 255.53
  C 191.52 256.75 192.39 257.81 193.48 258.70
  C 193.79 258.96 194.03 259.25 194.18 259.58
  C 194.35 259.93 194.51 260.29 194.68 260.64
  C 194.93 261.17 195.26 261.65 195.66 262.09
  C 198.11 264.78 200.32 267.42 202.29 270.03
  C 203.21 271.25 204.30 272.30 205.55 273.18
  C 213.26 278.57 221.23 283.54 229.46 288.08
  C 230.31 288.55 232.05 289.66 234.68 291.41
  C 236.41 292.56 238.25 293.52 240.19 294.31
  C 241.24 294.74 243.34 296.04 246.49 298.19
  C 248.92 299.84 250.54 301.29 251.35 302.53
  C 252.72 304.62 253.13 306.88 252.56 309.31
  C 251.67 313.11 249.26 317.53 245.31 322.56
  C 244.60 323.47 244.41 324.63 244.75 326.04"
/>
<path stroke="#121c2d" stroke-opacity="0.996" vector-effect="non-scaling-stroke" d="
  M 183.00 357.46
  C 184.47 357.17 184.97 356.19 184.50 354.54"
/>
<path stroke="#243b66" vector-effect="non-scaling-stroke" d="
  M 144.25 291.79
  C 142.72 291.72 142.47 291.87 143.52 292.26
  C 143.75 292.34 143.88 292.59 143.81 292.83
  C 143.48 293.94 143.73 294.75 144.55 295.27
  C 145.02 295.57 145.31 295.76 145.40 295.83
  C 147.00 297.08 148.95 297.97 151.25 298.50
  C 161.22 300.81 170.56 302.47 179.25 303.50
  C 187.32 304.45 195.86 303.39 204.85 300.31
  C 204.93 300.28 205.54 300.11 206.67 299.79
  C 208.99 299.13 209.25 297.89 207.44 296.06
  C 206.67 295.28 205.27 294.91 203.25 294.96"
/>
<path stroke="#243b66" vector-effect="non-scaling-stroke" d="
  M 124.00 253.46
  C 122.85 253.67 122.47 254.15 122.84 254.90
  C 123.23 255.68 123.44 256.11 123.47 256.19
  C 123.88 257.21 124.54 257.92 125.47 258.33
  C 126.86 258.94 127.68 259.34 127.93 259.53
  C 129.82 260.93 131.08 261.77 131.69 262.06
  C 139.38 265.69 147.23 268.93 155.23 271.80
  C 159.15 273.20 163.16 274.24 167.25 274.92
  C 167.56 274.97 167.86 274.83 168.01 274.57
  C 169.50 271.96 169.76 269.19 168.79 266.25"
/>
<path stroke="#1f2c40" stroke-opacity="0.796" vector-effect="non-scaling-stroke" d="
  M 171.25 266.54
  C 173.94 267.33 176.69 267.56 179.50 267.21"
/>
<path stroke="#243d6a" vector-effect="non-scaling-stroke" d="
  M 120.81 201.92
  C 120.00 201.94 119.82 202.12 120.29 202.47
  C 121.10 203.06 121.22 203.72 120.65 204.45
  C 120.45 204.70 120.39 205.01 120.49 205.28
  C 120.70 205.86 120.90 206.45 121.07 207.04
  C 121.26 207.68 121.51 208.24 121.83 208.71
  C 125.05 213.38 128.74 217.59 132.91 221.34
  C 135.98 224.10 140.33 227.57 145.98 231.74
  C 154.91 238.35 164.50 243.59 174.74 247.47
  C 175.77 247.86 176.06 247.55 175.61 246.56
  L 169.71 233.20
  C 169.61 232.97 169.55 232.65 169.52 232.24
  C 169.47 231.43 168.96 231.16 168.00 231.45"
/>
<path stroke="#8e721c" vector-effect="non-scaling-stroke" d="
  M 380.73 298.56
  C 375.37 292.90 368.69 288.40 360.69 285.06
  C 350.98 281.01 342.84 277.99 336.25 275.99
  C 321.10 271.39 306.95 264.58 293.82 255.56"
/>
<path stroke="#e3b83b" vector-effect="non-scaling-stroke" d="
  M 352.27 289.03
  C 351.19 287.26 349.61 286.34 347.54 286.25"
/>
<path stroke="#e6d084" vector-effect="non-scaling-stroke" d="
  M 347.54 286.25
  C 343.99 284.68 340.43 283.13 336.86 281.59
  C 335.47 280.99 335.11 281.29 335.79 282.49
  C 335.98 282.82 336.07 283.14 336.08 283.45
  C 336.13 285.32 335.94 287.67 335.50 290.50
  C 335.23 292.25 334.68 293.43 333.86 294.04"
/>
<path stroke="#8e721c" vector-effect="non-scaling-stroke" d="
  M 318.46 285.00
  C 320.68 286.09 323.01 286.58 325.45 286.47
  C 325.78 286.45 325.83 286.33 325.58 286.10
  C 318.40 279.53 310.35 273.83 301.44 269.00"
/>
<path stroke="#595630" stroke-opacity="0.859" vector-effect="non-scaling-stroke" d="
  M 390.71 293.00
  C 390.50 293.17 390.27 293.26 390.00 293.29"
/>
<path stroke="#907926" stroke-opacity="0.796" vector-effect="non-scaling-stroke" d="
  M 395.71 291.00
  L 391.85 297.42"
/>
<path stroke="#b69f37" stroke-opacity="0.859" vector-effect="non-scaling-stroke" d="
  M 391.85 297.42
  C 390.67 296.44 390.29 294.97 390.71 293.00"
/>
<path stroke="#877329" vector-effect="non-scaling-stroke" d="
  M 390.71 293.00
  C 391.34 291.27 392.10 289.58 392.97 287.95
  C 397.76 278.92 400.04 269.27 399.80 259.00
  C 399.61 250.68 398.19 242.42 395.55 234.23"
/>
<path stroke="#e5d7ab" vector-effect="non-scaling-stroke" d="
  M 347.54 286.25
  C 347.39 286.75 347.37 287.25 347.46 287.75"
/>
<path stroke="#2256a7" vector-effect="non-scaling-stroke" d="
  M 154.41 186.40
  C 139.31 178.61 126.30 168.41 115.39 155.81
  C 115.16 155.56 115.03 155.25 115.01 154.95
  L 114.96 154.00"
/>
<path stroke="#f9cd08" vector-effect="non-scaling-stroke" d="
  M 325.31 242.19
  C 318.83 239.45 312.30 236.83 305.72 234.33
  C 303.64 233.54 303.38 233.87 304.94 235.31
  C 306.79 237.02 311.02 239.25 317.64 242.00
  C 320.07 243.01 322.61 243.43 325.25 243.25
  C 326.73 243.15 326.75 242.80 325.31 242.19"
/>
<path stroke="#ffde07" vector-effect="non-scaling-stroke" d="
  M 332.29 209.41
  C 329.55 206.08 326.45 203.11 322.98 200.51
  C 320.51 198.65 318.13 196.68 315.86 194.59
  C 315.61 194.36 315.32 194.21 315.01 194.17
  C 314.15 194.06 314.00 194.22 314.55 194.66
  C 323.67 201.90 331.78 210.13 338.88 219.35
  C 339.43 220.06 339.72 220.13 339.75 219.54
  C 339.76 219.37 339.72 219.19 339.63 219.00
  C 338.67 217.08 337.49 215.32 336.09 213.73
  C 333.64 210.96 332.38 209.52 332.29 209.41"
/>
<path stroke="#8693a4" vector-effect="non-scaling-stroke" d="
  M 351.67 352.58
  C 352.43 353.21 353.65 353.86 355.34 354.51
  C 355.60 354.61 355.88 354.44 355.92 354.17
  C 356.65 348.14 358.61 342.64 361.81 337.69
  C 361.94 337.48 361.89 337.20 361.68 337.06
  C 353.61 331.58 345.79 325.35 338.21 318.38
  C 337.58 317.80 337.38 317.92 337.61 318.75
  C 340.01 327.23 342.60 335.47 345.37 343.46
  C 346.63 347.10 348.73 350.14 351.67 352.58"
/>
</g>
<path fill="#2063c4" d="
  M 217.25 151.96
  C 216.88 152.01 216.57 152.14 216.32 152.36
  C 216.11 152.55 216.06 152.89 216.19 153.21
  C 219.20 160.80 221.29 168.65 222.46 176.75
  C 221.05 177.74 219.14 178.16 216.75 178.00
  C 214.87 177.87 212.04 178.22 208.25 179.04
  C 201.48 172.49 195.93 165.11 191.60 156.90
  C 189.22 152.39 186.57 146.27 183.65 138.56
  C 180.74 130.88 178.35 123.03 176.46 115.01
  C 175.44 110.66 174.36 106.33 173.22 102.01
  C 172.70 100.03 172.39 98.02 172.29 95.98
  C 172.21 94.50 172.01 93.20 171.70 92.09
  C 171.12 90.04 170.80 88.76 170.75 88.25
  C 170.09 81.74 169.36 75.23 168.56 68.74
  C 168.53 68.48 168.34 68.23 168.05 68.06
  C 167.46 67.73 167.20 67.14 167.25 66.29
  L 166.75 66.21
  C 168.04 61.40 168.70 56.53 168.75 51.62
  C 168.77 49.37 169.10 49.33 169.74 51.48
  C 179.82 85.28 195.25 116.39 216.04 144.81
  C 216.21 145.05 216.41 145.28 216.64 145.50
  C 218.59 147.34 218.38 147.69 216.02 146.54
  C 215.70 146.38 215.35 146.44 215.19 146.66
  C 215.11 146.77 215.06 146.90 215.03 147.05
  C 215.00 147.16 215.02 147.29 215.07 147.44
  C 215.64 149.02 216.36 150.53 217.25 151.96
  Z"
/>
<path fill="#e1bf62" d="
  M 166.75 66.21
  L 167.25 66.29
  L 167.21 67.00
  L 167.00 67.00
  C 166.90 67.00 166.84 67.13 166.88 67.25
  C 167.51 69.09 166.90 69.92 165.04 69.75
  C 165.33 68.44 165.90 67.26 166.75 66.21
  Z"
/>
<path fill="#3e5a67" d="
  M 167.25 66.29
  C 167.20 67.14 167.46 67.73 168.05 68.06
  C 168.34 68.23 168.53 68.48 168.56 68.74
  C 169.36 75.23 170.09 81.74 170.75 88.25
  C 170.80 88.76 171.12 90.04 171.70 92.09
  C 172.01 93.20 172.21 94.50 172.29 95.98
  C 172.39 98.02 172.70 100.03 173.22 102.01
  C 174.36 106.33 175.44 110.66 176.46 115.01
  C 178.35 123.03 180.74 130.88 183.65 138.56
  C 186.57 146.27 189.22 152.39 191.60 156.90
  C 195.93 165.11 201.48 172.49 208.25 179.04
  C 212.88 183.34 217.64 187.48 222.55 191.45
  C 224.00 192.62 223.91 193.47 222.29 194.00
  C 222.18 193.77 222.00 193.68 221.75 193.71
  C 221.77 193.17 221.58 192.79 221.19 192.58
  C 220.76 192.35 220.53 192.22 220.49 192.19
  C 213.78 186.87 207.54 181.05 201.77 174.73
  C 197.75 170.33 194.14 165.19 190.94 159.31
  C 186.35 150.89 182.63 142.32 179.78 133.60
  C 177.98 128.11 176.19 121.69 174.42 114.35
  C 172.91 108.07 171.43 100.87 170.00 92.75
  C 168.23 82.71 167.30 74.13 167.21 67.00
  L 167.25 66.29
  Z"
/>
<path fill="#fedb07" d="
  M 167.21 67.00
  C 167.30 74.13 168.23 82.71 170.00 92.75
  C 171.43 100.87 172.91 108.07 174.42 114.35
  C 176.19 121.69 177.98 128.11 179.78 133.60
  C 182.63 142.32 186.35 150.89 190.94 159.31
  C 194.14 165.19 197.75 170.33 201.77 174.73
  C 207.54 181.05 213.78 186.87 220.49 192.19
  C 220.53 192.22 220.76 192.35 221.19 192.58
  C 221.58 192.79 221.77 193.17 221.75 193.71
  C 214.44 194.10 206.98 194.08 199.37 193.66
  C 199.01 193.64 198.74 194.00 198.86 194.34
  C 201.76 202.67 205.34 210.61 209.60 218.16
  C 212.95 224.09 216.80 229.52 221.15 234.43
  C 228.84 243.12 237.63 250.66 247.50 257.04
  C 254.71 262.34 261.98 267.56 269.31 272.69
  C 272.57 274.97 274.98 276.50 276.54 277.28
  C 276.87 277.44 277.21 277.48 277.47 277.38
  L 280.25 276.29
  L 288.86 272.41
  C 291.37 271.56 293.99 270.97 296.74 270.65
  C 298.34 270.46 299.70 270.89 300.81 271.94
  C 301.14 272.25 301.19 273.14 300.94 274.19
  C 299.57 279.89 296.88 284.83 292.87 289.00
  C 292.82 289.05 292.23 289.71 291.11 290.97
  C 289.97 292.24 288.63 293.23 287.08 293.92
  C 285.25 294.74 284.09 295.21 283.60 295.32
  C 282.31 295.60 281.01 295.26 279.69 294.31
  C 271.78 288.60 261.98 282.23 250.27 275.18
  C 238.27 267.95 226.59 260.19 215.24 251.88
  C 214.25 251.15 213.75 250.18 213.75 248.95
  C 213.75 246.90 213.82 245.17 213.97 243.77
  C 214.18 241.78 213.63 240.22 212.31 239.11
  C 211.12 238.11 210.51 237.60 210.49 237.58
  C 208.14 235.05 206.18 232.25 204.60 229.17
  C 203.11 226.28 201.53 223.44 199.86 220.65
  C 199.33 219.77 198.42 218.83 197.15 217.83
  C 195.90 216.85 194.75 215.59 193.69 214.06
  C 191.38 210.73 188.55 207.22 185.22 203.55
  C 181.99 199.98 180.24 198.07 179.95 197.80
  C 178.11 196.10 175.91 194.64 173.36 193.41
  C 172.03 192.78 170.97 191.84 170.18 190.59
  C 168.13 187.34 167.16 183.56 167.25 179.25
  C 167.29 177.21 166.52 174.36 164.95 170.70
  C 164.83 170.43 164.79 170.10 164.84 169.76
  C 165.01 168.61 164.89 167.10 164.50 165.25
  C 163.96 162.72 163.57 155.81 163.33 144.52
  C 163.29 142.73 163.10 139.90 162.76 136.02
  C 162.51 133.18 162.41 130.34 162.48 127.49
  C 162.57 123.56 162.55 120.24 162.42 117.51
  C 162.25 113.78 162.27 110.45 162.50 107.50
  C 162.62 105.88 162.57 104.54 162.36 103.48
  C 162.29 103.16 162.32 102.83 162.43 102.53
  C 163.27 100.25 163.46 97.91 163.00 95.50
  C 162.83 94.61 163.02 92.22 163.56 88.32
  C 163.57 88.27 163.76 87.41 164.14 85.73
  C 164.61 83.64 164.22 81.65 162.98 79.75
  L 165.04 69.75
  C 166.90 69.92 167.51 69.09 166.88 67.25
  C 166.84 67.13 166.90 67.00 167.00 67.00
  L 167.21 67.00
  Z"
/>
<path fill="#f4bf08" d="
  M 162.98 79.75
  C 164.22 81.65 164.61 83.64 164.14 85.73
  C 163.76 87.41 163.57 88.27 163.56 88.32
  C 163.02 92.22 162.83 94.61 163.00 95.50
  C 163.46 97.91 163.27 100.25 162.43 102.53
  C 162.32 102.83 162.29 103.16 162.36 103.48
  C 162.57 104.54 162.62 105.88 162.50 107.50
  C 162.27 110.45 162.25 113.78 162.42 117.51
  C 162.55 120.24 162.57 123.56 162.48 127.49
  C 162.41 130.34 162.51 133.18 162.76 136.02
  C 163.10 139.90 163.29 142.73 163.33 144.52
  C 163.57 155.81 163.96 162.72 164.50 165.25
  C 164.89 167.10 165.01 168.61 164.84 169.76
  C 164.79 170.10 164.83 170.43 164.95 170.70
  C 166.52 174.36 167.29 177.21 167.25 179.25
  C 167.16 183.56 168.13 187.34 170.18 190.59
  C 170.97 191.84 172.03 192.78 173.36 193.41
  C 175.91 194.64 178.11 196.10 179.95 197.80
  C 180.24 198.07 181.99 199.98 185.22 203.55
  C 188.55 207.22 191.38 210.73 193.69 214.06
  C 194.75 215.59 195.90 216.85 197.15 217.83
  C 198.42 218.83 199.33 219.77 199.86 220.65
  C 201.53 223.44 203.11 226.28 204.60 229.17
  C 206.18 232.25 208.14 235.05 210.49 237.58
  C 210.51 237.60 211.12 238.11 212.31 239.11
  C 213.63 240.22 214.18 241.78 213.97 243.77
  C 213.82 245.17 213.75 246.90 213.75 248.95
  C 213.75 250.18 214.25 251.15 215.24 251.88
  C 226.59 260.19 238.27 267.95 250.27 275.18
  C 261.98 282.23 271.78 288.60 279.69 294.31
  C 281.01 295.26 282.31 295.60 283.60 295.32
  C 284.09 295.21 285.25 294.74 287.08 293.92
  C 288.63 293.23 289.97 292.24 291.11 290.97
  C 292.23 289.71 292.82 289.05 292.87 289.00
  C 296.88 284.83 299.57 279.89 300.94 274.19
  C 301.19 273.14 301.14 272.25 300.81 271.94
  C 299.70 270.89 298.34 270.46 296.74 270.65
  C 293.99 270.97 291.37 271.56 288.86 272.41
  C 280.66 268.24 272.85 263.45 265.44 258.06
  C 263.31 256.51 260.14 254.57 255.94 252.24
  C 255.70 252.11 255.57 251.82 255.62 251.52
  L 258.17 237.97
  C 258.24 237.60 258.58 237.36 258.94 237.42
  L 290.70 242.68
  C 291.84 242.87 291.96 242.59 291.06 241.86
  C 287.59 239.05 284.13 236.37 280.66 233.80
  C 274.13 228.96 270.59 226.36 270.04 226.00
  C 266.36 223.52 262.44 221.44 258.29 219.75
  L 258.25 219.54
  L 268.06 215.13
  C 269.30 214.58 269.24 214.21 267.89 214.02
  C 265.22 213.65 262.69 212.96 260.30 211.95
  C 258.18 211.06 256.05 209.59 253.91 207.56
  C 250.74 204.55 247.83 201.31 245.16 197.83
  C 238.77 189.48 233.13 180.58 228.26 171.14
  C 231.99 173.33 235.36 175.96 238.37 179.05
  C 238.40 179.08 239.09 179.94 240.42 181.61
  C 241.54 183.02 242.98 184.05 244.73 184.71
  C 246.28 185.29 247.85 186.24 249.44 187.56
  C 251.39 189.19 254.32 191.17 258.22 193.50
  C 276.69 204.54 295.47 215.02 314.56 224.94
  C 318.67 227.07 326.17 230.40 337.06 234.94
  C 346.25 238.77 355.13 243.23 363.70 248.32
  C 364.30 248.68 365.07 248.51 365.47 247.94
  C 366.47 246.53 367.79 245.28 369.44 244.19
  C 371.34 242.93 372.86 240.62 374.00 237.25
  C 374.35 236.22 374.25 235.38 373.71 234.75
  C 373.76 234.36 373.93 234.02 374.21 233.75
  L 374.79 234.75
  C 374.53 236.29 375.09 237.46 376.46 238.25
  C 376.61 239.12 376.94 239.76 377.46 240.19
  C 377.59 243.00 378.20 245.06 379.30 246.37
  C 380.65 247.98 381.30 247.73 381.25 245.63
  C 381.21 243.74 380.89 241.95 380.29 240.25
  L 379.96 238.25
  C 380.67 232.68 379.29 227.66 375.83 223.21
  C 372.52 215.86 368.52 208.74 363.84 201.85
  C 370.29 205.66 375.57 210.68 379.67 216.90
  C 388.56 228.37 391.67 241.32 389.00 255.75
  C 388.63 257.74 388.00 260.38 387.10 263.68
  C 387.07 263.79 387.02 263.86 386.95 263.91
  C 386.86 263.98 386.77 264.01 386.67 264.02
  C 386.48 264.03 386.29 263.84 386.23 263.57
  C 385.65 260.96 384.86 258.41 383.87 255.92
  C 382.58 252.71 382.15 253.31 382.58 257.74
  C 383.18 263.97 382.57 270.06 380.75 276.02
  C 380.46 276.95 380.19 276.95 379.93 276.00
  C 379.30 273.67 378.28 271.54 376.86 269.59
  C 375.71 268.01 374.02 266.40 371.81 264.75
  C 363.18 258.34 353.18 254.90 341.81 254.44
  C 336.04 254.21 331.02 254.37 326.74 254.93
  C 326.49 254.96 326.37 255.24 326.50 255.44
  L 331.58 263.16
  C 332.22 264.13 332.00 264.47 330.92 264.18
  C 318.43 260.85 306.06 257.98 293.82 255.56
  C 293.42 257.11 293.71 258.26 294.70 259.03
  C 295.43 259.60 295.89 259.99 296.08 260.21
  C 296.77 261.02 297.23 261.43 297.47 261.44
  C 298.94 261.53 300.24 262.06 301.36 263.03
  C 303.93 265.26 303.96 267.25 301.44 269.00
  C 305.90 287.05 305.16 304.53 299.23 321.44
  C 296.94 327.98 293.98 333.93 290.36 339.29
  C 286.06 345.67 280.91 351.37 274.90 356.39
  C 266.86 363.12 259.58 368.92 253.06 373.81
  C 237.36 385.59 223.85 399.26 212.53 414.83
  C 209.72 418.67 206.52 422.14 202.93 425.25
  C 208.04 415.56 213.98 406.47 220.77 397.97
  C 222.84 395.46 224.92 392.97 227.02 390.51
  C 234.49 381.75 241.38 372.56 247.69 362.94
  C 248.40 361.85 248.65 360.79 248.46 359.75
  L 249.54 357.54
  C 249.71 357.19 249.60 357.05 249.20 357.13
  L 243.50 358.29
  C 241.15 357.82 238.96 358.11 236.93 359.16
  C 231.66 359.94 224.02 360.30 214.00 360.25
  C 205.45 360.20 198.60 359.63 193.43 358.54
  C 206.48 354.31 218.94 347.81 230.81 339.06
  C 236.49 334.87 241.14 330.53 244.75 326.04
  C 248.66 321.68 251.82 316.83 254.23 311.49
  C 255.22 309.30 255.31 307.07 254.50 304.79
  C 253.15 301.00 250.73 298.14 247.24 296.21
  C 235.03 289.45 223.09 282.26 211.41 274.64
  C 208.81 272.95 206.69 271.34 205.04 269.82
  C 202.89 267.84 201.06 265.88 199.56 263.94
  C 194.74 257.67 190.28 250.42 186.17 242.17
  C 176.20 222.15 169.11 201.17 164.92 179.23
  C 164.91 179.21 164.71 177.71 164.30 174.73
  C 164.09 173.22 163.74 171.74 163.25 170.29
  C 163.65 169.84 163.78 169.37 163.65 168.87
  C 163.53 168.43 163.47 168.17 163.46 168.10
  C 160.69 143.55 160.02 118.93 161.44 94.25
  C 161.72 89.38 162.23 84.55 162.98 79.75
  Z
  M 325.31 242.19
  C 318.83 239.45 312.30 236.83 305.72 234.33
  C 303.64 233.54 303.38 233.87 304.94 235.31
  C 306.79 237.02 311.02 239.25 317.64 242.00
  C 320.07 243.01 322.61 243.43 325.25 243.25
  C 326.73 243.15 326.75 242.80 325.31 242.19
  Z"
/>
<path fill="#233657" d="
  M 104.00 139.96
  C 102.72 140.68 102.47 141.78 103.25 143.25
  C 110.30 156.52 117.53 168.22 124.92 178.36
  C 134.37 191.32 145.70 202.59 158.90 212.18
  C 159.48 212.61 159.70 212.46 159.56 211.75
  L 154.41 186.40
  C 153.98 178.93 153.10 172.05 151.79 165.75
  L 162.46 170.35
  C 162.81 177.94 163.88 185.45 165.65 192.89
  C 165.65 192.90 165.92 194.36 166.47 197.28
  C 166.75 198.77 167.20 200.20 167.82 201.57
  C 168.91 203.96 169.60 205.71 169.90 206.82
  C 171.07 211.17 172.43 215.45 173.98 219.67
  C 174.49 221.06 175.52 223.34 177.07 226.51
  C 178.18 228.77 179.15 231.09 179.96 233.47
  C 181.35 237.51 182.50 240.39 183.39 242.12
  C 185.18 245.57 187.12 248.95 189.19 252.25
  C 189.20 252.27 189.77 253.36 190.89 255.53
  C 191.52 256.75 192.39 257.81 193.48 258.70
  C 193.79 258.96 194.03 259.25 194.18 259.58
  C 194.35 259.93 194.51 260.29 194.68 260.64
  C 194.93 261.17 195.26 261.65 195.66 262.09
  C 198.11 264.78 200.32 267.42 202.29 270.03
  C 203.21 271.25 204.30 272.30 205.55 273.18
  C 213.26 278.57 221.23 283.54 229.46 288.08
  C 230.31 288.55 232.05 289.66 234.68 291.41
  C 236.41 292.56 238.25 293.52 240.19 294.31
  C 241.24 294.74 243.34 296.04 246.49 298.19
  C 248.92 299.84 250.54 301.29 251.35 302.53
  C 252.72 304.62 253.13 306.88 252.56 309.31
  C 251.67 313.11 249.26 317.53 245.31 322.56
  C 244.60 323.47 244.41 324.63 244.75 326.04
  C 241.14 330.53 236.49 334.87 230.81 339.06
  C 218.94 347.81 206.48 354.31 193.43 358.54
  L 183.00 357.46
  C 184.47 357.17 184.97 356.19 184.50 354.54
  C 192.73 352.66 200.60 349.77 208.09 345.86
  C 220.03 339.64 230.83 331.82 240.48 322.39
  C 241.51 321.39 241.30 320.92 239.87 320.98
  C 238.35 321.05 236.98 321.26 235.75 321.61
  C 216.62 327.15 197.55 327.34 178.56 322.19
  C 172.69 320.60 166.91 318.15 161.21 314.86
  C 148.52 307.53 137.14 298.29 127.06 287.14
  C 126.61 286.65 126.71 286.50 127.36 286.69
  L 144.25 291.79
  C 142.72 291.72 142.47 291.87 143.52 292.26
  C 143.75 292.34 143.88 292.59 143.81 292.83
  C 143.48 293.94 143.73 294.75 144.55 295.27
  C 145.02 295.57 145.31 295.76 145.40 295.83
  C 147.00 297.08 148.95 297.97 151.25 298.50
  C 161.22 300.81 170.56 302.47 179.25 303.50
  C 187.32 304.45 195.86 303.39 204.85 300.31
  C 204.93 300.28 205.54 300.11 206.67 299.79
  C 208.99 299.13 209.25 297.89 207.44 296.06
  C 206.67 295.28 205.27 294.91 203.25 294.96
  L 210.63 294.50
  C 211.94 294.42 212.22 293.86 211.45 292.83
  L 208.48 288.82
  C 208.19 288.43 207.74 288.21 207.26 288.22
  C 198.07 288.47 189.24 288.19 180.76 287.37
  C 169.13 286.24 157.97 283.51 147.28 279.18
  C 140.56 276.47 134.68 273.37 129.64 269.89
  C 118.30 262.06 109.52 251.76 103.30 238.98
  C 103.23 238.84 103.23 238.73 103.29 238.64
  C 103.36 238.53 103.55 238.55 103.68 238.68
  C 109.65 244.69 116.43 249.62 124.00 253.46
  C 122.85 253.67 122.47 254.15 122.84 254.90
  C 123.23 255.68 123.44 256.11 123.47 256.19
  C 123.88 257.21 124.54 257.92 125.47 258.33
  C 126.86 258.94 127.68 259.34 127.93 259.53
  C 129.82 260.93 131.08 261.77 131.69 262.06
  C 139.38 265.69 147.23 268.93 155.23 271.80
  C 159.15 273.20 163.16 274.24 167.25 274.92
  C 167.56 274.97 167.86 274.83 168.01 274.57
  C 169.50 271.96 169.76 269.19 168.79 266.25
  L 171.25 266.54
  C 173.94 267.33 176.69 267.56 179.50 267.21
  L 185.51 267.60
  C 186.81 267.68 187.12 267.17 186.45 266.08
  L 181.40 257.92
  C 181.10 257.43 180.57 257.11 179.98 257.03
  C 166.49 255.34 154.08 250.90 142.76 243.69
  C 128.14 234.38 116.68 222.12 108.37 206.91
  C 102.32 195.82 98.05 184.54 95.54 173.08
  C 95.07 170.92 95.40 170.78 96.55 172.67
  C 103.20 183.60 111.28 193.35 120.81 201.92
  C 120.00 201.94 119.82 202.12 120.29 202.47
  C 121.10 203.06 121.22 203.72 120.65 204.45
  C 120.45 204.70 120.39 205.01 120.49 205.28
  C 120.70 205.86 120.90 206.45 121.07 207.04
  C 121.26 207.68 121.51 208.24 121.83 208.71
  C 125.05 213.38 128.74 217.59 132.91 221.34
  C 135.98 224.10 140.33 227.57 145.98 231.74
  C 154.91 238.35 164.50 243.59 174.74 247.47
  C 175.77 247.86 176.06 247.55 175.61 246.56
  L 169.71 233.20
  C 169.61 232.97 169.55 232.65 169.52 232.24
  C 169.47 231.43 168.96 231.16 168.00 231.45
  C 167.01 227.48 165.51 223.60 163.48 219.82
  C 163.29 219.46 162.98 219.17 162.61 219.01
  C 147.37 212.39 134.13 203.29 122.90 191.71
  C 121.58 190.34 119.84 188.35 117.68 185.73
  C 116.57 184.37 115.44 183.02 114.29 181.69
  C 113.03 180.21 111.97 178.81 111.11 177.49
  C 104.48 167.32 99.23 156.51 95.36 145.06
  C 93.23 138.75 91.49 133.05 90.16 127.94
  C 88.65 122.14 87.61 116.24 87.02 110.25
  C 86.92 109.29 87.05 109.03 87.41 109.47
  C 87.50 109.59 87.58 109.75 87.63 109.95
  C 88.10 111.69 88.73 113.37 89.52 114.99
  C 93.71 123.68 98.54 132.01 104.00 139.96
  Z"
/>
<path fill="#ffe107" d="
  M 253.79 152.23
  C 253.85 155.38 255.07 157.90 257.44 159.80
  C 258.53 160.67 259.09 161.13 259.13 161.16
  C 261.17 162.98 262.61 164.36 263.44 165.31
  C 265.55 167.72 267.99 169.65 270.76 171.10
  C 274.17 172.88 275.89 173.78 275.94 173.81
  C 283.47 178.10 291.57 180.78 300.23 181.84
  C 311.20 184.68 321.72 188.72 331.80 193.96
  C 345.95 201.31 357.71 211.47 367.07 224.46
  C 367.98 227.41 369.66 229.83 372.10 231.70
  C 372.34 231.89 372.52 232.16 372.58 232.48
  C 372.76 233.33 373.14 234.09 373.71 234.75
  C 374.25 235.38 374.35 236.22 374.00 237.25
  C 372.86 240.62 371.34 242.93 369.44 244.19
  C 367.79 245.28 366.47 246.53 365.47 247.94
  C 365.07 248.51 364.30 248.68 363.70 248.32
  C 355.13 243.23 346.25 238.77 337.06 234.94
  C 326.17 230.40 318.67 227.07 314.56 224.94
  C 295.47 215.02 276.69 204.54 258.22 193.50
  C 254.32 191.17 251.39 189.19 249.44 187.56
  C 247.85 186.24 246.28 185.29 244.73 184.71
  C 242.98 184.05 241.54 183.02 240.42 181.61
  C 239.09 179.94 238.40 179.08 238.37 179.05
  C 235.36 175.96 231.99 173.33 228.26 171.14
  L 223.71 163.00
  C 222.84 161.91 222.56 160.69 222.86 159.34
  C 226.16 161.03 229.18 163.06 231.93 165.43
  C 236.45 169.35 238.72 171.32 238.75 171.34
  C 249.53 179.47 261.59 186.04 274.94 191.06
  C 279.14 192.64 282.92 193.68 286.28 194.18
  C 286.65 194.23 286.96 194.24 287.22 194.19
  C 288.17 194.00 288.00 193.56 286.72 192.85
  C 281.09 189.72 275.37 186.75 269.56 183.95
  C 267.53 182.97 265.56 181.90 263.64 180.74
  C 261.65 179.53 259.87 178.18 258.31 176.69
  C 252.87 171.48 248.81 165.28 246.12 158.09
  C 241.85 146.66 238.90 134.63 237.25 122.00
  C 237.16 121.35 237.27 120.82 237.58 120.41
  C 237.73 120.21 238.05 120.25 238.19 120.49
  C 239.10 122.10 239.86 123.79 240.47 125.55
  C 243.75 135.04 248.19 143.94 253.79 152.23
  Z
  M 332.29 209.41
  C 329.55 206.08 326.45 203.11 322.98 200.51
  C 320.51 198.65 318.13 196.68 315.86 194.59
  C 315.61 194.36 315.32 194.21 315.01 194.17
  C 314.15 194.06 314.00 194.22 314.55 194.66
  C 323.67 201.90 331.78 210.13 338.88 219.35
  C 339.43 220.06 339.72 220.13 339.75 219.54
  C 339.76 219.37 339.72 219.19 339.63 219.00
  C 338.67 217.08 337.49 215.32 336.09 213.73
  C 333.64 210.96 332.38 209.52 332.29 209.41
  Z"
/>
<path fill="#2063c4" d="
  M 151.79 165.75
  C 153.10 172.05 153.98 178.93 154.41 186.40
  C 139.31 178.61 126.30 168.41 115.39 155.81
  C 115.16 155.56 115.03 155.25 115.01 154.95
  L 114.96 154.00
  C 115.27 153.47 115.36 152.88 115.23 152.25
  C 113.92 146.04 112.85 139.78 112.00 133.49
  C 111.77 131.82 112.10 131.70 112.99 133.13
  C 114.78 136.02 116.84 138.86 119.18 141.65
  C 121.31 144.18 123.78 146.67 126.57 149.10
  C 134.20 155.75 142.61 161.30 151.79 165.75
  Z"
/>
<path fill="#24488a" d="
  M 104.00 139.96
  C 107.47 144.45 110.83 149.02 114.07 153.68
  C 114.27 153.97 114.57 154.08 114.96 154.00
  L 115.01 154.95
  C 115.03 155.25 115.16 155.56 115.39 155.81
  C 126.30 168.41 139.31 178.61 154.41 186.40
  L 159.56 211.75
  C 159.70 212.46 159.48 212.61 158.90 212.18
  C 145.70 202.59 134.37 191.32 124.92 178.36
  C 117.53 168.22 110.30 156.52 103.25 143.25
  C 102.47 141.78 102.72 140.68 104.00 139.96
  Z"
/>
<path fill="#233657" d="
  M 217.25 151.96
  C 218.62 155.19 220.49 157.65 222.86 159.34
  C 222.56 160.69 222.84 161.91 223.71 163.00
  C 222.66 163.98 222.49 164.92 223.20 165.83
  C 223.85 166.66 224.19 167.11 224.24 167.19
  C 225.35 169.20 226.34 171.28 227.19 173.41
  C 228.00 175.43 229.00 177.32 230.18 179.07
  C 231.35 180.80 232.42 182.58 233.41 184.41
  C 234.60 186.64 235.69 188.40 236.66 189.70
  C 238.14 191.68 239.65 193.63 241.20 195.56
  C 242.03 196.59 243.53 198.56 245.70 201.48
  C 248.36 205.07 251.36 208.36 254.70 211.36
  C 254.91 211.55 255.20 211.70 255.55 211.81
  C 256.72 212.17 257.50 212.91 257.87 214.02
  C 257.96 214.29 257.92 214.62 257.76 214.94
  C 256.94 216.58 257.10 218.11 258.25 219.54
  L 258.29 219.75
  L 259.00 221.70
  C 259.12 222.04 259.32 222.29 259.53 222.37
  C 261.36 223.10 263.09 224.02 264.72 225.12
  C 267.56 227.05 269.00 228.02 269.05 228.05
  C 273.74 230.94 278.32 234.02 282.78 237.27
  C 283.03 237.45 283.13 237.77 283.01 238.04
  C 282.43 239.34 281.43 239.74 280.00 239.25
  C 278.40 238.70 276.98 238.36 275.75 238.25
  C 273.50 238.04 272.34 237.93 272.27 237.92
  C 267.66 237.03 263.07 236.04 258.50 234.96
  L 260.00 231.12
  C 260.34 230.25 260.24 229.29 259.72 228.59
  C 256.83 224.64 253.97 221.15 251.13 218.13
  C 246.77 213.50 242.56 208.74 238.51 203.84
  C 232.30 196.33 228.98 192.25 228.54 191.60
  C 225.56 187.17 223.53 182.22 222.46 176.75
  C 221.29 168.65 219.20 160.80 216.19 153.21
  C 216.06 152.89 216.11 152.55 216.32 152.36
  C 216.57 152.14 216.88 152.01 217.25 151.96
  Z"
/>
<path fill="#ebda42" d="
  M 253.79 152.23
  C 258.92 160.30 265.05 166.32 272.19 170.31
  C 279.36 174.32 288.70 178.16 300.23 181.84
  C 291.57 180.78 283.47 178.10 275.94 173.81
  C 275.89 173.78 274.17 172.88 270.76 171.10
  C 267.99 169.65 265.55 167.72 263.44 165.31
  C 262.61 164.36 261.17 162.98 259.13 161.16
  C 259.09 161.13 258.53 160.67 257.44 159.80
  C 255.07 157.90 253.85 155.38 253.79 152.23
  Z"
/>
<path fill="#353930" d="
  M 223.71 163.00
  L 228.26 171.14
  C 233.13 180.58 238.77 189.48 245.16 197.83
  C 247.83 201.31 250.74 204.55 253.91 207.56
  C 256.05 209.59 258.18 211.06 260.30 211.95
  C 262.69 212.96 265.22 213.65 267.89 214.02
  C 269.24 214.21 269.30 214.58 268.06 215.13
  L 258.25 219.54
  C 257.10 218.11 256.94 216.58 257.76 214.94
  C 257.92 214.62 257.96 214.29 257.87 214.02
  C 257.50 212.91 256.72 212.17 255.55 211.81
  C 255.20 211.70 254.91 211.55 254.70 211.36
  C 251.36 208.36 248.36 205.07 245.70 201.48
  C 243.53 198.56 242.03 196.59 241.20 195.56
  C 239.65 193.63 238.14 191.68 236.66 189.70
  C 235.69 188.40 234.60 186.64 233.41 184.41
  C 232.42 182.58 231.35 180.80 230.18 179.07
  C 229.00 177.32 228.00 175.43 227.19 173.41
  C 226.34 171.28 225.35 169.20 224.24 167.19
  C 224.19 167.11 223.85 166.66 223.20 165.83
  C 222.49 164.92 222.66 163.98 223.71 163.00
  Z"
/>
<path fill="#373423" d="
  M 162.46 170.35
  C 162.91 170.24 163.18 170.22 163.25 170.29
  C 163.74 171.74 164.09 173.22 164.30 174.73
  C 164.71 177.71 164.91 179.21 164.92 179.23
  C 169.11 201.17 176.20 222.15 186.17 242.17
  C 190.28 250.42 194.74 257.67 199.56 263.94
  C 201.06 265.88 202.89 267.84 205.04 269.82
  C 206.69 271.34 208.81 272.95 211.41 274.64
  C 223.09 282.26 235.03 289.45 247.24 296.21
  C 250.73 298.14 253.15 301.00 254.50 304.79
  C 255.31 307.07 255.22 309.30 254.23 311.49
  C 251.82 316.83 248.66 321.68 244.75 326.04
  C 244.41 324.63 244.60 323.47 245.31 322.56
  C 249.26 317.53 251.67 313.11 252.56 309.31
  C 253.13 306.88 252.72 304.62 251.35 302.53
  C 250.54 301.29 248.92 299.84 246.49 298.19
  C 243.34 296.04 241.24 294.74 240.19 294.31
  C 238.25 293.52 236.41 292.56 234.68 291.41
  C 232.05 289.66 230.31 288.55 229.46 288.08
  C 221.23 283.54 213.26 278.57 205.55 273.18
  C 204.30 272.30 203.21 271.25 202.29 270.03
  C 200.32 267.42 198.11 264.78 195.66 262.09
  C 195.26 261.65 194.93 261.17 194.68 260.64
  C 194.51 260.29 194.35 259.93 194.18 259.58
  C 194.03 259.25 193.79 258.96 193.48 258.70
  C 192.39 257.81 191.52 256.75 190.89 255.53
  C 189.77 253.36 189.20 252.27 189.19 252.25
  C 187.12 248.95 185.18 245.57 183.39 242.12
  C 182.50 240.39 181.35 237.51 179.96 233.47
  C 179.15 231.09 178.18 228.77 177.07 226.51
  C 175.52 223.34 174.49 221.06 173.98 219.67
  C 172.43 215.45 171.07 211.17 169.90 206.82
  C 169.60 205.71 168.91 203.96 167.82 201.57
  C 167.20 200.20 166.75 198.77 166.47 197.28
  C 165.92 194.36 165.65 192.90 165.65 192.89
  C 163.88 185.45 162.81 177.94 162.46 170.35
  Z"
/>
<path fill="#24488a" d="
  M 222.46 176.75
  C 223.53 182.22 225.56 187.17 228.54 191.60
  C 228.98 192.25 232.30 196.33 238.51 203.84
  C 242.56 208.74 246.77 213.50 251.13 218.13
  C 253.97 221.15 256.83 224.64 259.72 228.59
  C 260.24 229.29 260.34 230.25 260.00 231.12
  L 258.50 234.96
  C 257.98 235.51 257.48 236.07 257.01 236.66
  C 256.54 237.23 256.25 237.91 256.13 238.68
  C 255.94 239.85 255.78 241.02 255.64 242.19
  C 255.51 243.28 255.26 244.43 254.90 245.63
  C 254.20 247.98 253.69 250.38 253.37 252.82
  C 253.33 253.12 253.16 253.41 252.90 253.61
  C 251.86 254.40 251.08 255.47 250.57 256.82
  L 249.25 256.21
  C 243.52 252.16 237.12 246.99 230.06 240.69
  C 223.08 234.45 217.48 227.75 213.25 220.58
  C 208.66 212.81 204.75 204.77 201.50 196.48
  C 201.16 195.61 201.45 195.26 202.37 195.43
  C 208.79 196.60 215.08 196.62 221.25 195.50
  C 221.88 195.39 222.23 194.89 222.29 194.00
  C 223.91 193.47 224.00 192.62 222.55 191.45
  C 217.64 187.48 212.88 183.34 208.25 179.04
  C 212.04 178.22 214.87 177.87 216.75 178.00
  C 219.14 178.16 221.05 177.74 222.46 176.75
  Z"
/>
<path fill="#353930" d="
  M 221.75 193.71
  C 222.00 193.68 222.18 193.77 222.29 194.00
  C 222.23 194.89 221.88 195.39 221.25 195.50
  C 215.08 196.62 208.79 196.60 202.37 195.43
  C 201.45 195.26 201.16 195.61 201.50 196.48
  C 204.75 204.77 208.66 212.81 213.25 220.58
  C 217.48 227.75 223.08 234.45 230.06 240.69
  C 237.12 246.99 243.52 252.16 249.25 256.21
  C 248.57 256.27 247.99 256.55 247.50 257.04
  C 237.63 250.66 228.84 243.12 221.15 234.43
  C 216.80 229.52 212.95 224.09 209.60 218.16
  C 205.34 210.61 201.76 202.67 198.86 194.34
  C 198.74 194.00 199.01 193.64 199.37 193.66
  C 206.98 194.08 214.44 194.10 221.75 193.71
  Z"
/>
<path fill="#fedb07" d="
  M 336.09 213.73
  C 337.49 215.32 338.67 217.08 339.63 219.00
  C 339.72 219.19 339.76 219.37 339.75 219.54
  C 339.72 220.13 339.43 220.06 338.88 219.35
  C 331.78 210.13 323.67 201.90 314.55 194.66
  C 314.00 194.22 314.15 194.06 315.01 194.17
  C 315.32 194.21 315.61 194.36 315.86 194.59
  C 318.13 196.68 320.51 198.65 322.98 200.51
  C 326.45 203.11 329.55 206.08 332.29 209.41
  C 332.38 209.52 333.64 210.96 336.09 213.73
  Z"
/>
<path fill="#233654" d="
  M 405.29 244.00
  C 405.65 245.72 405.80 247.44 405.74 249.17
  C 405.67 251.17 405.73 252.88 405.91 254.30
  C 406.24 256.85 406.43 260.09 406.50 264.00
  C 406.56 267.51 405.99 270.47 404.79 272.87
  C 404.65 273.16 404.59 273.47 404.61 273.81
  C 404.68 275.09 404.40 276.26 403.77 277.33
  C 403.61 277.60 403.52 277.90 403.49 278.24
  L 403.29 280.75
  L 403.21 281.00
  C 401.56 283.01 400.32 285.01 399.50 287.00
  C 398.69 288.97 397.42 290.30 395.71 291.00
  C 398.95 284.62 400.97 277.87 401.77 270.75
  C 402.61 263.25 402.60 255.75 401.75 248.25
  C 401.23 243.68 399.16 239.00 395.55 234.23
  C 395.66 237.82 396.00 241.29 396.58 244.62
  C 397.23 248.33 397.56 251.28 397.59 253.48
  C 397.65 258.04 397.60 262.60 397.43 267.15
  C 397.32 269.99 396.92 272.68 396.23 275.21
  C 395.18 279.04 394.25 281.62 393.44 282.94
  C 392.07 285.16 390.84 287.76 389.75 290.75
  C 389.40 291.73 389.48 292.58 390.00 293.29
  C 390.25 293.58 390.32 293.90 390.21 294.25
  C 389.58 293.34 388.89 293.40 388.13 294.43
  C 387.40 295.42 386.60 296.38 385.75 297.29
  C 384.48 297.17 383.67 297.64 383.31 298.70
  C 383.21 298.98 383.00 299.21 382.71 299.33
  C 382.10 299.57 381.70 300.03 381.50 300.71
  C 381.15 301.30 380.69 301.79 380.11 302.18
  C 379.83 302.36 379.66 302.65 379.65 302.95
  L 378.48 328.22
  C 378.42 329.47 377.71 330.02 376.36 329.88
  L 372.50 329.48
  C 371.20 329.35 370.69 330.04 370.96 331.56
  C 371.19 332.78 371.05 333.82 370.54 334.69
  C 370.44 334.86 369.68 335.47 368.25 336.52
  C 366.99 337.45 366.73 338.72 367.46 340.32
  C 367.80 341.05 367.52 341.93 366.81 342.33
  C 362.84 344.60 361.13 348.43 361.69 353.82
  C 361.84 355.21 361.61 356.53 361.01 357.78
  C 359.78 360.36 357.91 360.98 355.42 359.65
  C 355.23 359.55 353.84 358.57 351.24 356.70
  C 343.58 351.19 335.87 345.56 328.10 339.81
  C 327.36 339.26 327.03 339.45 327.11 340.36
  C 327.49 345.08 327.27 349.96 326.46 355.00
  L 325.04 354.75
  C 322.19 345.49 317.70 336.94 311.55 329.10
  C 310.62 327.91 310.23 328.07 310.37 329.57
  C 311.98 346.64 309.32 362.70 302.39 377.74
  C 302.26 378.04 302.18 378.03 302.17 377.70
  L 300.97 349.50
  C 300.90 347.83 300.52 347.76 299.84 349.29
  C 297.78 353.94 294.98 357.99 291.44 361.44
  C 290.51 362.34 289.79 363.14 289.27 363.83
  C 288.34 365.05 287.66 365.85 287.22 366.23
  C 284.91 368.20 282.60 370.17 280.29 372.12
  C 277.98 374.07 275.60 375.95 273.13 377.74
  C 261.98 385.83 250.75 393.81 239.44 401.69
  C 231.55 407.18 219.74 416.55 204.00 429.79
  C 202.71 429.97 201.87 429.46 201.46 428.25
  L 202.93 425.25
  C 206.52 422.14 209.72 418.67 212.53 414.83
  C 216.97 410.76 221.15 406.46 225.08 401.91
  C 228.22 398.28 230.87 395.53 233.03 393.67
  C 235.93 391.17 238.92 388.78 242.01 386.51
  C 243.20 385.63 244.46 384.38 245.78 382.76
  C 247.50 380.63 249.59 378.73 252.06 377.06
  C 253.61 376.01 255.77 374.46 258.55 372.40
  C 260.46 370.98 262.55 369.32 264.82 367.42
  C 269.43 363.56 274.09 359.75 278.79 356.00
  C 283.40 352.31 287.91 346.99 292.31 340.06
  C 297.61 331.71 301.18 323.76 303.03 316.20
  C 303.05 316.12 303.13 316.08 303.19 316.12
  C 303.22 316.15 303.25 316.18 303.27 316.22
  C 303.31 316.29 303.34 316.29 303.35 316.22
  C 304.00 312.07 304.71 307.93 305.49 303.80
  C 306.03 300.92 306.40 298.02 306.59 295.11
  C 306.75 292.74 306.58 289.84 306.07 286.43
  C 305.63 283.43 305.25 280.42 304.92 277.40
  C 304.87 276.93 304.68 276.32 304.37 275.57
  C 303.91 274.45 304.11 273.77 304.98 273.53
  C 305.55 273.37 306.22 273.53 306.99 274.00
  C 310.97 276.47 314.76 279.19 318.37 282.18
  C 318.59 282.36 318.68 282.67 318.59 282.97
  C 318.41 283.62 318.37 284.30 318.46 285.00
  C 316.39 284.57 314.36 284.02 312.35 283.36
  C 312.08 283.27 311.85 283.27 311.66 283.34
  C 311.23 283.50 311.12 283.75 311.31 284.10
  C 311.42 284.30 311.63 284.47 311.95 284.61
  C 319.21 287.85 326.51 290.99 333.86 294.04
  C 338.37 300.88 343.52 306.01 349.31 309.44
  C 355.85 313.30 362.18 313.16 368.29 309.03
  C 368.66 308.79 368.62 308.64 368.19 308.57
  C 365.10 308.10 362.49 306.98 360.35 305.22
  C 359.38 304.42 357.53 302.38 354.82 299.11
  C 351.94 295.63 349.49 291.84 347.46 287.75
  L 352.27 289.03
  C 358.98 291.37 365.42 294.35 371.59 297.98
  C 373.59 299.15 375.45 300.68 377.16 302.56
  C 377.38 302.80 377.76 302.76 377.96 302.48
  L 380.73 298.56
  C 381.16 297.28 381.07 296.28 380.44 295.56
  C 376.27 290.81 370.98 287.30 364.57 285.01
  C 363.96 284.79 363.37 284.53 362.78 284.24
  C 356.99 281.33 351.66 279.09 346.78 277.54
  C 341.03 275.71 335.29 273.84 329.56 271.94
  C 327.57 271.28 325.26 270.33 322.62 269.10
  C 320.36 268.05 318.06 267.07 315.72 266.18
  C 315.40 266.06 315.15 265.84 315.02 265.56
  C 314.39 264.23 314.62 263.27 315.71 262.69
  C 316.36 262.34 317.24 262.31 318.34 262.62
  C 322.75 263.85 327.14 265.15 331.52 266.51
  C 333.75 267.20 334.52 266.42 333.83 264.19
  C 333.20 262.19 331.98 260.31 330.17 258.55
  C 328.55 256.97 328.85 256.22 331.08 256.31
  L 348.25 256.96
  C 348.52 256.97 348.83 257.07 349.18 257.26
  C 349.67 257.53 350.18 257.69 350.73 257.75
  C 352.06 257.90 352.74 257.98 352.75 257.98
  C 361.56 260.11 368.81 263.95 374.50 269.50
  C 375.78 270.75 376.71 272.60 377.28 275.05
  C 377.57 276.28 377.97 277.11 378.46 277.52
  C 379.27 278.19 380.26 278.38 381.45 278.08
  C 381.75 278.00 382.01 277.79 382.14 277.49
  C 383.61 274.12 384.45 270.60 384.66 266.93
  C 384.68 266.67 384.90 266.46 385.18 266.46
  C 386.97 266.46 388.18 265.58 388.81 263.81
  C 392.20 254.44 392.76 245.00 390.50 235.50
  C 390.09 233.75 389.49 231.70 388.72 229.34
  C 388.09 227.41 387.16 225.51 385.93 223.63
  C 383.88 220.50 382.57 218.45 382.00 217.50
  C 381.53 216.70 380.75 216.50 379.67 216.90
  C 375.57 210.68 370.29 205.66 363.84 201.85
  C 363.11 201.25 362.39 200.57 361.67 199.80
  C 361.58 199.71 361.53 199.63 361.52 199.54
  C 361.47 199.30 361.61 199.25 361.94 199.39
  C 374.92 205.20 385.85 213.67 394.72 224.78
  C 399.34 230.57 402.86 236.98 405.29 244.00
  Z
  M 351.67 352.58
  C 352.43 353.21 353.65 353.86 355.34 354.51
  C 355.60 354.61 355.88 354.44 355.92 354.17
  C 356.65 348.14 358.61 342.64 361.81 337.69
  C 361.94 337.48 361.89 337.20 361.68 337.06
  C 353.61 331.58 345.79 325.35 338.21 318.38
  C 337.58 317.80 337.38 317.92 337.61 318.75
  C 340.01 327.23 342.60 335.47 345.37 343.46
  C 346.63 347.10 348.73 350.14 351.67 352.58
  Z"
/>
<path fill="#24437c" d="
  M 120.81 201.92
  C 134.70 214.62 150.43 224.46 168.00 231.45
  C 168.96 231.16 169.47 231.43 169.52 232.24
  C 169.55 232.65 169.61 232.97 169.71 233.20
  L 175.61 246.56
  C 176.06 247.55 175.77 247.86 174.74 247.47
  C 164.50 243.59 154.91 238.35 145.98 231.74
  C 140.33 227.57 135.98 224.10 132.91 221.34
  C 128.74 217.59 125.05 213.38 121.83 208.71
  C 121.51 208.24 121.26 207.68 121.07 207.04
  C 120.90 206.45 120.70 205.86 120.49 205.28
  C 120.39 205.01 120.45 204.70 120.65 204.45
  C 121.22 203.72 121.10 203.06 120.29 202.47
  C 119.82 202.12 120.00 201.94 120.81 201.92
  Z"
/>
<path fill="#373423" d="
  M 380.73 298.56
  C 375.37 292.90 368.69 288.40 360.69 285.06
  C 350.98 281.01 342.84 277.99 336.25 275.99
  C 321.10 271.39 306.95 264.58 293.82 255.56
  C 306.06 257.98 318.43 260.85 330.92 264.18
  C 332.00 264.47 332.22 264.13 331.58 263.16
  L 326.50 255.44
  C 326.37 255.24 326.49 254.96 326.74 254.93
  C 331.02 254.37 336.04 254.21 341.81 254.44
  C 353.18 254.90 363.18 258.34 371.81 264.75
  C 374.02 266.40 375.71 268.01 376.86 269.59
  C 378.28 271.54 379.30 273.67 379.93 276.00
  C 380.19 276.95 380.46 276.95 380.75 276.02
  C 382.57 270.06 383.18 263.97 382.58 257.74
  C 382.15 253.31 382.58 252.71 383.87 255.92
  C 384.86 258.41 385.65 260.96 386.23 263.57
  C 386.29 263.84 386.48 264.03 386.67 264.02
  C 386.77 264.01 386.86 263.98 386.95 263.91
  C 387.02 263.86 387.07 263.79 387.10 263.68
  C 388.00 260.38 388.63 257.74 389.00 255.75
  C 391.67 241.32 388.56 228.37 379.67 216.90
  C 380.75 216.50 381.53 216.70 382.00 217.50
  C 382.57 218.45 383.88 220.50 385.93 223.63
  C 387.16 225.51 388.09 227.41 388.72 229.34
  C 389.49 231.70 390.09 233.75 390.50 235.50
  C 392.76 245.00 392.20 254.44 388.81 263.81
  C 388.18 265.58 386.97 266.46 385.18 266.46
  C 384.90 266.46 384.68 266.67 384.66 266.93
  C 384.45 270.60 383.61 274.12 382.14 277.49
  C 382.01 277.79 381.75 278.00 381.45 278.08
  C 380.26 278.38 379.27 278.19 378.46 277.52
  C 377.97 277.11 377.57 276.28 377.28 275.05
  C 376.71 272.60 375.78 270.75 374.50 269.50
  C 368.81 263.95 361.56 260.11 352.75 257.98
  C 352.74 257.98 352.06 257.90 350.73 257.75
  C 350.18 257.69 349.67 257.53 349.18 257.26
  C 348.83 257.07 348.52 256.97 348.25 256.96
  L 331.08 256.31
  C 328.85 256.22 328.55 256.97 330.17 258.55
  C 331.98 260.31 333.20 262.19 333.83 264.19
  C 334.52 266.42 333.75 267.20 331.52 266.51
  C 327.14 265.15 322.75 263.85 318.34 262.62
  C 317.24 262.31 316.36 262.34 315.71 262.69
  C 314.62 263.27 314.39 264.23 315.02 265.56
  C 315.15 265.84 315.40 266.06 315.72 266.18
  C 318.06 267.07 320.36 268.05 322.62 269.10
  C 325.26 270.33 327.57 271.28 329.56 271.94
  C 335.29 273.84 341.03 275.71 346.78 277.54
  C 351.66 279.09 356.99 281.33 362.78 284.24
  C 363.37 284.53 363.96 284.79 364.57 285.01
  C 370.98 287.30 376.27 290.81 380.44 295.56
  C 381.07 296.28 381.16 297.28 380.73 298.56
  Z"
/>
<path fill="#2d373c" d="
  M 258.29 219.75
  C 262.44 221.44 266.36 223.52 270.04 226.00
  C 270.59 226.36 274.13 228.96 280.66 233.80
  C 284.13 236.37 287.59 239.05 291.06 241.86
  C 291.96 242.59 291.84 242.87 290.70 242.68
  L 258.94 237.42
  C 258.58 237.36 258.24 237.60 258.17 237.97
  L 255.62 251.52
  C 255.57 251.82 255.70 252.11 255.94 252.24
  C 260.14 254.57 263.31 256.51 265.44 258.06
  C 272.85 263.45 280.66 268.24 288.86 272.41
  L 280.25 276.29
  C 276.36 275.24 272.87 273.48 269.80 271.03
  C 266.29 268.24 264.51 266.82 264.45 266.78
  C 259.76 263.47 255.14 260.15 250.57 256.82
  C 251.08 255.47 251.86 254.40 252.90 253.61
  C 253.16 253.41 253.33 253.12 253.37 252.82
  C 253.69 250.38 254.20 247.98 254.90 245.63
  C 255.26 244.43 255.51 243.28 255.64 242.19
  C 255.78 241.02 255.94 239.85 256.13 238.68
  C 256.25 237.91 256.54 237.23 257.01 236.66
  C 257.48 236.07 257.98 235.51 258.50 234.96
  C 263.07 236.04 267.66 237.03 272.27 237.92
  C 272.34 237.93 273.50 238.04 275.75 238.25
  C 276.98 238.36 278.40 238.70 280.00 239.25
  C 281.43 239.74 282.43 239.34 283.01 238.04
  C 283.13 237.77 283.03 237.45 282.78 237.27
  C 278.32 234.02 273.74 230.94 269.05 228.05
  C 269.00 228.02 267.56 227.05 264.72 225.12
  C 263.09 224.02 261.36 223.10 259.53 222.37
  C 259.32 222.29 259.12 222.04 259.00 221.70
  L 258.29 219.75
  Z"
/>
<path fill="#ae8811" fill-opacity="0.737" d="
  M 375.83 223.21
  C 379.29 227.66 380.67 232.68 379.96 238.25
  L 375.83 223.21
  Z"
/>
<path fill="#a2941c" fill-opacity="0.902" d="
  M 367.07 224.46
  C 369.86 227.21 372.24 230.30 374.21 233.75
  C 373.93 234.02 373.76 234.36 373.71 234.75
  C 373.14 234.09 372.76 233.33 372.58 232.48
  C 372.52 232.16 372.34 231.89 372.10 231.70
  C 369.66 229.83 367.98 227.41 367.07 224.46
  Z"
/>
<path fill="#d7b12f" d="
  M 395.71 291.00
  L 391.85 297.42
  C 390.67 296.44 390.29 294.97 390.71 293.00
  C 391.34 291.27 392.10 289.58 392.97 287.95
  C 397.76 278.92 400.04 269.27 399.80 259.00
  C 399.61 250.68 398.19 242.42 395.55 234.23
  C 399.16 239.00 401.23 243.68 401.75 248.25
  C 402.60 255.75 402.61 263.25 401.77 270.75
  C 400.97 277.87 398.95 284.62 395.71 291.00
  Z"
/>
<path fill="#fedb07" d="
  M 325.31 242.19
  C 326.75 242.80 326.73 243.15 325.25 243.25
  C 322.61 243.43 320.07 243.01 317.64 242.00
  C 311.02 239.25 306.79 237.02 304.94 235.31
  C 303.38 233.87 303.64 233.54 305.72 234.33
  C 312.30 236.83 318.83 239.45 325.31 242.19
  Z"
/>
<path fill="#373423" d="
  M 395.55 234.23
  C 398.19 242.42 399.61 250.68 399.80 259.00
  C 400.04 269.27 397.76 278.92 392.97 287.95
  C 392.10 289.58 391.34 291.27 390.71 293.00
  C 390.50 293.17 390.27 293.26 390.00 293.29
  C 389.48 292.58 389.40 291.73 389.75 290.75
  C 390.84 287.76 392.07 285.16 393.44 282.94
  C 394.25 281.62 395.18 279.04 396.23 275.21
  C 396.92 272.68 397.32 269.99 397.43 267.15
  C 397.60 262.60 397.65 258.04 397.59 253.48
  C 397.56 251.28 397.23 248.33 396.58 244.62
  C 396.00 241.29 395.66 237.82 395.55 234.23
  Z"
/>
<path fill="#a2941c" fill-opacity="0.902" d="
  M 374.79 234.75
  L 376.46 238.25
  C 375.09 237.46 374.53 236.29 374.79 234.75
  Z"
/>
<path fill="#ae8811" fill-opacity="0.737" d="
  M 377.46 240.19
  C 379.40 244.24 380.34 244.26 380.29 240.25
  C 380.89 241.95 381.21 243.74 381.25 245.63
  C 381.30 247.73 380.65 247.98 379.30 246.37
  C 378.20 245.06 377.59 243.00 377.46 240.19
  Z"
/>
<path fill="#191b18" fill-opacity="0.592" d="
  M 405.29 244.00
  C 405.91 245.21 406.25 246.50 406.30 247.87
  C 406.31 248.01 406.34 248.01 406.39 247.88
  C 406.44 247.75 406.50 247.69 406.58 247.68
  C 406.67 247.67 406.75 247.79 406.76 247.95
  C 407.16 255.53 407.19 263.11 406.84 270.68
  C 406.83 270.78 406.80 270.78 406.75 270.69
  C 406.61 270.47 406.27 271.29 405.72 273.15
  C 405.59 273.60 405.54 274.05 405.58 274.52
  C 405.71 276.08 405.38 277.59 404.61 279.05
  C 404.54 279.18 404.49 279.32 404.46 279.46
  C 404.20 280.72 404.03 280.77 403.95 279.60
  C 403.94 279.49 403.92 279.48 403.87 279.58
  L 403.29 280.75
  L 403.49 278.24
  C 403.52 277.90 403.61 277.60 403.77 277.33
  C 404.40 276.26 404.68 275.09 404.61 273.81
  C 404.59 273.47 404.65 273.16 404.79 272.87
  C 405.99 270.47 406.56 267.51 406.50 264.00
  C 406.43 260.09 406.24 256.85 405.91 254.30
  C 405.73 252.88 405.67 251.17 405.74 249.17
  C 405.80 247.44 405.65 245.72 405.29 244.00
  Z"
/>
<path fill="#254075" d="
  M 124.00 253.46
  C 134.19 257.95 144.68 261.53 155.47 264.21
  C 157.38 264.69 159.59 265.08 162.11 265.37
  C 164.34 265.63 166.56 265.92 168.79 266.25
  C 169.76 269.19 169.50 271.96 168.01 274.57
  C 167.86 274.83 167.56 274.97 167.25 274.92
  C 163.16 274.24 159.15 273.20 155.23 271.80
  C 147.23 268.93 139.38 265.69 131.69 262.06
  C 131.08 261.77 129.82 260.93 127.93 259.53
  C 127.68 259.34 126.86 258.94 125.47 258.33
  C 124.54 257.92 123.88 257.21 123.47 256.19
  C 123.44 256.11 123.23 255.68 122.84 254.90
  C 122.47 254.15 122.85 253.67 124.00 253.46
  Z"
/>
<path fill="#e4b014" d="
  M 293.82 255.56
  C 306.95 264.58 321.10 271.39 336.25 275.99
  C 342.84 277.99 350.98 281.01 360.69 285.06
  C 368.69 288.40 375.37 292.90 380.73 298.56
  L 377.96 302.48
  C 377.76 302.76 377.38 302.80 377.16 302.56
  C 375.45 300.68 373.59 299.15 371.59 297.98
  C 365.42 294.35 358.98 291.37 352.27 289.03
  C 351.19 287.26 349.61 286.34 347.54 286.25
  C 343.99 284.68 340.43 283.13 336.86 281.59
  C 335.47 280.99 335.11 281.29 335.79 282.49
  C 335.98 282.82 336.07 283.14 336.08 283.45
  C 336.13 285.32 335.94 287.67 335.50 290.50
  C 335.23 292.25 334.68 293.43 333.86 294.04
  C 326.51 290.99 319.21 287.85 311.95 284.61
  C 311.63 284.47 311.42 284.30 311.31 284.10
  C 311.12 283.75 311.23 283.50 311.66 283.34
  C 311.85 283.27 312.08 283.27 312.35 283.36
  C 314.36 284.02 316.39 284.57 318.46 285.00
  C 320.68 286.09 323.01 286.58 325.45 286.47
  C 325.78 286.45 325.83 286.33 325.58 286.10
  C 318.40 279.53 310.35 273.83 301.44 269.00
  C 303.96 267.25 303.93 265.26 301.36 263.03
  C 300.24 262.06 298.94 261.53 297.47 261.44
  C 297.23 261.43 296.77 261.02 296.08 260.21
  C 295.89 259.99 295.43 259.60 294.70 259.03
  C 293.71 258.26 293.42 257.11 293.82 255.56
  Z"
/>
<path fill="#373423" d="
  M 249.25 256.21
  L 250.57 256.82
  C 255.14 260.15 259.76 263.47 264.45 266.78
  C 264.51 266.82 266.29 268.24 269.80 271.03
  C 272.87 273.48 276.36 275.24 280.25 276.29
  L 277.47 277.38
  C 277.21 277.48 276.87 277.44 276.54 277.28
  C 274.98 276.50 272.57 274.97 269.31 272.69
  C 261.98 267.56 254.71 262.34 247.50 257.04
  C 247.99 256.55 248.57 256.27 249.25 256.21
  Z"
/>
<path fill="#191b18" fill-opacity="0.592" d="
  M 179.50 267.21
  C 176.69 267.56 173.94 267.33 171.25 266.54
  C 174.11 265.99 176.86 266.21 179.50 267.21
  Z"
/>
<path fill="#373423" d="
  M 301.44 269.00
  C 310.35 273.83 318.40 279.53 325.58 286.10
  C 325.83 286.33 325.78 286.45 325.45 286.47
  C 323.01 286.58 320.68 286.09 318.46 285.00
  C 318.37 284.30 318.41 283.62 318.59 282.97
  C 318.68 282.67 318.59 282.36 318.37 282.18
  C 314.76 279.19 310.97 276.47 306.99 274.00
  C 306.22 273.53 305.55 273.37 304.98 273.53
  C 304.11 273.77 303.91 274.45 304.37 275.57
  C 304.68 276.32 304.87 276.93 304.92 277.40
  C 305.25 280.42 305.63 283.43 306.07 286.43
  C 306.58 289.84 306.75 292.74 306.59 295.11
  C 306.40 298.02 306.03 300.92 305.49 303.80
  C 304.71 307.93 304.00 312.07 303.35 316.22
  C 303.34 316.29 303.31 316.29 303.27 316.22
  C 303.25 316.18 303.22 316.15 303.19 316.12
  C 303.13 316.08 303.05 316.12 303.03 316.20
  C 301.18 323.76 297.61 331.71 292.31 340.06
  C 287.91 346.99 283.40 352.31 278.79 356.00
  C 274.09 359.75 269.43 363.56 264.82 367.42
  C 262.55 369.32 260.46 370.98 258.55 372.40
  C 255.77 374.46 253.61 376.01 252.06 377.06
  C 249.59 378.73 247.50 380.63 245.78 382.76
  C 244.46 384.38 243.20 385.63 242.01 386.51
  C 238.92 388.78 235.93 391.17 233.03 393.67
  C 230.87 395.53 228.22 398.28 225.08 401.91
  C 221.15 406.46 216.97 410.76 212.53 414.83
  C 223.85 399.26 237.36 385.59 253.06 373.81
  C 259.58 368.92 266.86 363.12 274.90 356.39
  C 280.91 351.37 286.06 345.67 290.36 339.29
  C 293.98 333.93 296.94 327.98 299.23 321.44
  C 305.16 304.53 305.90 287.05 301.44 269.00
  Z"
/>
<path fill="#191b18" fill-opacity="0.592" d="
  M 403.21 281.00
  L 403.00 283.72
  C 402.97 284.07 402.89 284.08 402.75 283.75
  L 402.66 283.53
  C 402.59 283.39 402.55 283.40 402.53 283.55
  C 402.38 284.47 402.05 285.32 401.54 286.09
  C 401.37 286.35 401.27 286.67 401.26 287.00
  C 401.23 288.18 400.73 289.04 399.76 289.59
  C 399.44 289.77 399.21 290.01 399.09 290.26
  L 398.06 292.44
  C 397.97 292.63 397.68 293.05 397.19 293.69
  C 395.86 295.41 394.62 297.19 393.45 299.02
  C 393.36 299.16 393.08 299.26 392.72 299.28
  C 392.43 299.29 392.25 299.59 392.20 300.18
  C 392.18 300.51 391.99 300.78 391.73 300.89
  C 389.61 301.78 388.89 301.10 389.58 298.85
  C 391.02 299.57 391.78 299.09 391.85 297.42
  L 395.71 291.00
  C 397.42 290.30 398.69 288.97 399.50 287.00
  C 400.32 285.01 401.56 283.01 403.21 281.00
  Z"
/>
<path fill="#e8eff4" d="
  M 347.54 286.25
  C 347.39 286.75 347.37 287.25 347.46 287.75
  C 349.49 291.84 351.94 295.63 354.82 299.11
  C 357.53 302.38 359.38 304.42 360.35 305.22
  C 362.49 306.98 365.10 308.10 368.19 308.57
  C 368.62 308.64 368.66 308.79 368.29 309.03
  C 362.18 313.16 355.85 313.30 349.31 309.44
  C 343.52 306.01 338.37 300.88 333.86 294.04
  C 334.68 293.43 335.23 292.25 335.50 290.50
  C 335.94 287.67 336.13 285.32 336.08 283.45
  C 336.07 283.14 335.98 282.82 335.79 282.49
  C 335.11 281.29 335.47 280.99 336.86 281.59
  C 340.43 283.13 343.99 284.68 347.54 286.25
  Z"
/>
<path fill="#e1bf62" d="
  M 347.54 286.25
  C 349.61 286.34 351.19 287.26 352.27 289.03
  L 347.46 287.75
  C 347.37 287.25 347.39 286.75 347.54 286.25
  Z"
/>
<path fill="#254075" d="
  M 144.25 291.79
  C 151.05 293.14 156.47 293.96 160.50 294.25
  C 172.93 295.15 187.18 295.39 203.25 294.96
  C 205.27 294.91 206.67 295.28 207.44 296.06
  C 209.25 297.89 208.99 299.13 206.67 299.79
  C 205.54 300.11 204.93 300.28 204.85 300.31
  C 195.86 303.39 187.32 304.45 179.25 303.50
  C 170.56 302.47 161.22 300.81 151.25 298.50
  C 148.95 297.97 147.00 297.08 145.40 295.83
  C 145.31 295.76 145.02 295.57 144.55 295.27
  C 143.73 294.75 143.48 293.94 143.81 292.83
  C 143.88 292.59 143.75 292.34 143.52 292.26
  C 142.47 291.87 142.72 291.72 144.25 291.79
  Z"
/>
<path fill="#888642" fill-opacity="0.714" d="
  M 390.71 293.00
  C 390.29 294.97 390.67 296.44 391.85 297.42
  C 391.78 299.09 391.02 299.57 389.58 298.85
  C 390.19 297.26 390.40 295.72 390.21 294.25
  C 390.32 293.90 390.25 293.58 390.00 293.29
  C 390.27 293.26 390.50 293.17 390.71 293.00
  Z"
/>
<path fill="#191b18" fill-opacity="0.592" d="
  M 385.75 297.29
  C 384.59 298.74 383.17 299.88 381.50 300.71
  C 381.70 300.03 382.10 299.57 382.71 299.33
  C 383.00 299.21 383.21 298.98 383.31 298.70
  C 383.67 297.64 384.48 297.17 385.75 297.29
  Z"
/>
<path fill="#e8eff4" d="
  M 351.67 352.58
  C 348.73 350.14 346.63 347.10 345.37 343.46
  C 342.60 335.47 340.01 327.23 337.61 318.75
  C 337.38 317.92 337.58 317.80 338.21 318.38
  C 345.79 325.35 353.61 331.58 361.68 337.06
  C 361.89 337.20 361.94 337.48 361.81 337.69
  C 358.61 342.64 356.65 348.14 355.92 354.17
  C 355.88 354.44 355.60 354.61 355.34 354.51
  C 353.65 353.86 352.43 353.21 351.67 352.58
  Z"
/>
<path fill="#010202" fill-opacity="0.988" d="
  M 184.50 354.54
  C 184.97 356.19 184.47 357.17 183.00 357.46
  C 180.33 357.34 177.75 356.85 175.24 356.00
  C 175.10 355.95 175.00 355.86 174.99 355.77
  C 174.98 355.66 175.07 355.60 175.26 355.59
  C 178.36 355.40 181.44 355.05 184.50 354.54
  Z"
/>
<path fill="#010202" fill-opacity="0.988" d="
  M 325.04 354.75
  L 326.46 355.00
  C 326.01 359.36 325.54 359.28 325.04 354.75
  Z"
/>
<path fill="#888642" fill-opacity="0.714" d="
  M 243.50 358.29
  L 236.93 359.16
  C 238.96 358.11 241.15 357.82 243.50 358.29
  Z"
/>
<path fill="#888642" fill-opacity="0.714" d="
  M 248.46 359.75
  C 248.65 360.79 248.40 361.85 247.69 362.94
  C 241.38 372.56 234.49 381.75 227.02 390.51
  C 224.92 392.97 222.84 395.46 220.77 397.97
  C 223.90 392.98 226.14 389.65 227.50 388.00
  C 234.96 378.93 241.95 369.52 248.46 359.75
  Z"
/>
<path fill="#010202" fill-opacity="0.988" d="
  M 201.46 428.25
  C 201.87 429.46 202.71 429.97 204.00 429.79
  L 197.43 434.48
  C 197.12 434.70 196.74 434.68 196.62 434.44
  C 196.51 434.23 196.61 433.97 196.91 433.66
  C 198.56 431.97 200.07 430.16 201.46 428.25
  Z"
/>
</svg>
